<?xml version="1.0" encoding="UTF-8"?>
<svg version="1.1" xmlns="http://www.w3.org/2000/svg" width="1254" height="1254">
<path d="M0,0 L1254,0 L1254,1254 L0,1254 Z " fill="#4F6144" transform="translate(0,0)"/>
<path d="M0,0 L347,0 L347,1 L364,1 L364,2 L369,2 L369,3 L379,3 L379,4 L386,4 L386,5 L392,5 L392,6 L395,6 L395,7 L399,7 L399,8 L404,8 L404,9 L410,9 L410,10 L414,10 L414,11 L418,11 L418,12 L422,12 L422,13 L425,13 L425,14 L429,14 L429,15 L433,15 L433,16 L436,16 L436,17 L440,17 L440,18 L441,18 L441,19 L445,19 L445,20 L447,20 L447,21 L450,21 L450,22 L453,22 L453,23 L456,23 L456,24 L457,24 L457,25 L459,25 L459,26 L461,26 L461,27 L463,27 L463,28 L465,28 L465,29 L467,29 L467,30 L469,30 L469,31 L473,31 L473,32 L474,32 L474,33 L475,33 L475,34 L477,34 L477,35 L479,35 L479,36 L481,36 L481,37 L482,37 L482,38 L484,38 L484,39 L486,39 L486,40 L487,40 L487,41 L489,41 L489,42 L490,42 L490,43 L491,43 L491,44 L493,44 L493,45 L494,45 L494,46 L496,46 L496,47 L497,47 L497,48 L499,48 L499,49 L500,49 L500,50 L502,50 L502,51 L503,51 L503,52 L504,52 L504,53 L505,53 L505,54 L506,54 L506,55 L507,55 L507,56 L509,56 L509,57 L510,57 L510,58 L511,58 L511,59 L512,59 L512,60 L513,60 L513,61 L514,61 L514,62 L515,62 L515,63 L516,63 L516,64 L517,64 L517,65 L518,65 L518,66 L519,66 L519,67 L520,67 L520,68 L521,68 L521,69 L522,69 L522,70 L523,70 L523,71 L524,71 L524,72 L525,72 L525,73 L526,73 L526,74 L527,74 L527,76 L528,76 L528,77 L529,77 L529,78 L530,78 L530,79 L531,79 L531,80 L532,80 L532,82 L533,82 L533,83 L534,83 L534,85 L535,85 L535,86 L536,86 L536,88 L537,88 L537,89 L538,89 L538,90 L539,90 L539,92 L540,92 L540,93 L541,93 L541,95 L542,95 L542,97 L543,97 L543,98 L544,98 L544,100 L545,100 L545,102 L546,102 L546,103 L547,103 L547,105 L548,105 L548,107 L549,107 L549,109 L550,109 L550,111 L551,111 L551,113 L552,113 L552,115 L553,115 L553,119 L554,119 L554,121 L555,121 L555,122 L556,122 L556,124 L557,124 L557,127 L558,127 L558,132 L559,132 L559,135 L560,135 L560,136 L561,136 L561,140 L562,140 L562,143 L563,143 L563,147 L564,147 L564,151 L565,151 L565,156 L566,156 L566,161 L567,161 L567,167 L568,167 L568,173 L569,173 L569,186 L570,186 L570,213 L569,213 L569,222 L568,222 L568,226 L567,226 L567,234 L566,234 L566,240 L565,240 L565,246 L564,246 L564,251 L563,251 L563,252 L562,252 L562,256 L561,256 L561,260 L560,260 L560,264 L559,264 L559,266 L558,266 L558,270 L557,270 L557,273 L556,273 L556,275 L555,275 L555,278 L554,278 L554,279 L553,279 L553,281 L552,281 L552,284 L551,284 L551,286 L550,286 L550,290 L548,290 L548,292 L547,292 L547,294 L546,294 L546,296 L545,296 L545,298 L544,298 L544,300 L543,300 L543,302 L542,302 L542,304 L541,304 L541,305 L540,305 L540,307 L539,307 L539,308 L538,308 L538,310 L537,310 L537,312 L536,312 L536,313 L535,313 L535,315 L534,315 L534,316 L533,316 L533,318 L532,318 L532,319 L531,319 L531,320 L530,320 L530,322 L529,322 L529,323 L528,323 L528,325 L527,325 L527,326 L526,326 L526,327 L525,327 L525,328 L524,328 L524,329 L523,329 L523,331 L522,331 L522,332 L521,332 L521,333 L520,333 L520,334 L519,334 L519,335 L518,335 L518,336 L517,336 L517,337 L516,337 L516,339 L515,339 L515,340 L514,340 L514,341 L513,341 L513,342 L512,342 L512,343 L511,343 L511,344 L510,344 L510,345 L509,345 L509,346 L508,346 L508,347 L507,347 L507,348 L506,348 L506,349 L505,349 L505,350 L504,350 L504,351 L503,351 L503,352 L501,352 L501,353 L500,353 L500,354 L499,354 L499,355 L498,355 L498,356 L497,356 L497,357 L496,357 L496,358 L494,358 L494,359 L493,359 L493,360 L492,360 L492,361 L491,361 L491,362 L489,362 L489,363 L488,363 L488,364 L487,364 L487,365 L485,365 L485,366 L484,366 L484,367 L482,367 L482,368 L481,368 L481,369 L480,369 L480,370 L478,370 L478,371 L477,371 L477,372 L475,372 L475,373 L474,373 L474,374 L472,374 L472,375 L470,375 L470,376 L468,376 L468,377 L467,377 L467,378 L465,378 L465,379 L464,379 L464,380 L462,380 L462,381 L460,381 L460,382 L458,382 L458,383 L456,383 L456,384 L454,384 L454,385 L452,385 L452,386 L450,386 L450,387 L448,387 L448,388 L446,388 L446,389 L444,389 L444,390 L443,390 L443,391 L439,391 L439,392 L436,392 L436,394 L432,394 L432,395 L429,395 L429,396 L427,396 L427,397 L424,397 L424,398 L421,398 L421,399 L419,399 L419,400 L416,400 L416,401 L412,401 L412,402 L410,402 L410,403 L407,403 L407,404 L403,404 L403,405 L397,405 L397,406 L394,406 L394,407 L389,407 L389,408 L387,408 L387,409 L382,409 L382,410 L379,410 L379,411 L375,411 L375,412 L377,412 L377,413 L380,413 L380,414 L383,414 L383,415 L384,415 L384,417 L386,417 L386,418 L389,418 L389,419 L391,419 L391,420 L392,420 L392,421 L394,421 L394,422 L396,422 L396,423 L397,423 L397,424 L399,424 L399,425 L401,425 L401,426 L403,426 L403,427 L404,427 L404,428 L406,428 L406,429 L407,429 L407,430 L408,430 L408,431 L410,431 L410,432 L411,432 L411,433 L412,433 L412,434 L414,434 L414,435 L415,435 L415,436 L417,436 L417,437 L418,437 L418,438 L419,438 L419,439 L420,439 L420,440 L421,440 L421,441 L422,441 L422,442 L423,442 L423,443 L425,443 L425,444 L426,444 L426,445 L427,445 L427,446 L428,446 L428,448 L429,448 L429,449 L430,449 L430,450 L431,450 L431,451 L432,451 L432,452 L433,452 L433,453 L434,453 L434,454 L435,454 L435,455 L436,455 L436,456 L437,456 L437,458 L438,458 L438,459 L439,459 L439,460 L440,460 L440,461 L441,461 L441,463 L442,463 L442,464 L443,464 L443,466 L444,466 L444,467 L445,467 L445,468 L446,468 L446,469 L447,469 L447,471 L448,471 L448,473 L449,473 L449,474 L450,474 L450,476 L451,476 L451,478 L452,478 L452,479 L453,479 L453,481 L454,481 L454,482 L455,482 L455,484 L456,484 L456,486 L457,486 L457,488 L458,488 L458,490 L459,490 L459,492 L460,492 L460,494 L461,494 L461,496 L462,496 L462,498 L463,498 L463,500 L464,500 L464,504 L465,504 L465,505 L466,505 L466,507 L467,507 L467,511 L468,511 L468,513 L469,513 L469,514 L470,514 L470,518 L471,518 L471,521 L472,521 L472,524 L473,524 L473,527 L474,527 L474,530 L475,530 L475,532 L476,532 L476,534 L477,534 L477,538 L478,538 L478,540 L479,540 L479,544 L480,544 L480,547 L481,547 L481,551 L482,551 L482,555 L483,555 L483,558 L484,558 L484,561 L485,561 L485,562 L486,562 L486,566 L487,566 L487,569 L488,569 L488,573 L489,573 L489,576 L490,576 L490,579 L491,579 L491,582 L492,582 L492,585 L493,585 L493,588 L494,588 L494,592 L495,592 L495,596 L496,596 L496,600 L497,600 L497,603 L498,603 L498,606 L499,606 L499,609 L500,609 L500,612 L501,612 L501,615 L502,615 L502,619 L503,619 L503,623 L504,623 L504,629 L505,629 L505,632 L506,632 L506,635 L507,635 L507,638 L508,638 L508,639 L509,639 L509,642 L510,642 L510,646 L511,646 L511,648 L512,648 L512,651 L513,651 L513,654 L514,654 L514,657 L515,657 L515,660 L516,660 L516,664 L517,664 L517,668 L518,668 L518,671 L519,671 L519,674 L520,674 L520,676 L521,676 L521,678 L522,678 L522,682 L523,682 L523,685 L524,685 L524,687 L525,687 L525,688 L526,688 L526,692 L527,692 L527,693 L528,693 L528,695 L529,695 L529,697 L530,697 L530,699 L531,699 L531,701 L532,701 L532,702 L533,702 L533,704 L534,704 L534,706 L535,706 L535,708 L536,708 L536,710 L537,710 L537,711 L538,711 L538,713 L539,713 L539,714 L540,714 L540,715 L541,715 L541,716 L542,716 L542,718 L543,718 L543,719 L544,719 L544,721 L545,721 L545,722 L546,722 L546,723 L547,723 L547,724 L548,724 L548,725 L549,725 L549,726 L550,726 L550,727 L551,727 L551,728 L553,728 L553,729 L554,729 L554,730 L555,730 L555,731 L557,731 L557,732 L558,732 L558,733 L559,733 L559,734 L561,734 L561,735 L563,735 L563,736 L565,736 L565,737 L568,737 L568,738 L570,738 L570,739 L572,739 L572,740 L574,740 L574,741 L577,741 L577,742 L581,742 L581,743 L584,743 L584,744 L604,744 L604,743 L605,743 L605,742 L608,742 L608,741 L610,741 L610,740 L611,740 L611,739 L612,739 L612,733 L611,733 L611,732 L610,732 L610,731 L608,731 L608,730 L607,730 L607,729 L606,729 L606,728 L604,728 L604,727 L603,727 L603,726 L601,726 L601,725 L600,725 L600,724 L599,724 L599,723 L598,723 L598,722 L597,722 L597,720 L596,720 L596,719 L595,719 L595,717 L594,717 L594,715 L592,715 L592,711 L591,711 L591,697 L592,697 L592,693 L593,693 L593,691 L594,691 L594,690 L595,690 L595,688 L596,688 L596,687 L597,687 L597,686 L598,686 L598,685 L599,685 L599,684 L600,684 L600,683 L602,683 L602,682 L604,682 L604,681 L605,681 L605,680 L609,680 L609,679 L611,679 L611,678 L629,678 L629,679 L632,679 L632,680 L636,680 L636,681 L637,681 L637,682 L639,682 L639,683 L640,683 L640,684 L641,684 L641,685 L643,685 L643,686 L644,686 L644,688 L645,688 L645,689 L646,689 L646,690 L647,690 L647,691 L648,691 L648,693 L649,693 L649,695 L650,695 L650,699 L651,699 L651,701 L652,701 L652,722 L651,722 L651,728 L650,728 L650,731 L649,731 L649,733 L648,733 L648,734 L647,734 L647,737 L646,737 L646,739 L645,739 L645,740 L644,740 L644,742 L643,742 L643,744 L642,744 L642,745 L641,745 L641,746 L640,746 L640,747 L639,747 L639,748 L638,748 L638,749 L637,749 L637,751 L635,751 L635,752 L634,752 L634,753 L633,753 L633,754 L631,754 L631,755 L630,755 L630,756 L628,756 L628,757 L627,757 L627,758 L625,758 L625,759 L623,759 L623,760 L621,760 L621,761 L620,761 L620,762 L616,762 L616,763 L614,763 L614,764 L611,764 L611,765 L608,765 L608,766 L604,766 L604,767 L600,767 L600,768 L596,768 L596,769 L591,769 L591,770 L584,770 L584,771 L578,771 L578,772 L526,772 L526,771 L520,771 L520,770 L512,770 L512,769 L508,769 L508,768 L503,768 L503,767 L499,767 L499,766 L494,766 L494,765 L491,765 L491,764 L487,764 L487,763 L485,763 L485,762 L482,762 L482,761 L479,761 L479,760 L475,760 L475,759 L474,759 L474,758 L471,758 L471,757 L467,757 L467,756 L465,756 L465,755 L463,755 L463,754 L461,754 L461,753 L459,753 L459,752 L457,752 L457,751 L454,751 L454,750 L453,750 L453,749 L451,749 L451,748 L449,748 L449,747 L447,747 L447,746 L446,746 L446,745 L444,745 L444,744 L443,744 L443,743 L441,743 L441,742 L439,742 L439,741 L438,741 L438,740 L437,740 L437,739 L435,739 L435,738 L434,738 L434,737 L433,737 L433,736 L431,736 L431,735 L430,735 L430,734 L428,734 L428,733 L427,733 L427,732 L426,732 L426,731 L425,731 L425,730 L424,730 L424,729 L423,729 L423,728 L421,728 L421,727 L420,727 L420,725 L419,725 L419,724 L418,724 L418,723 L417,723 L417,722 L415,722 L415,721 L414,721 L414,720 L413,720 L413,719 L412,719 L412,717 L411,717 L411,716 L410,716 L410,715 L409,715 L409,714 L408,714 L408,713 L407,713 L407,712 L406,712 L406,710 L405,710 L405,709 L404,709 L404,708 L403,708 L403,706 L402,706 L402,705 L401,705 L401,703 L400,703 L400,702 L399,702 L399,701 L398,701 L398,699 L397,699 L397,698 L396,698 L396,696 L395,696 L395,694 L394,694 L394,692 L393,692 L393,691 L392,691 L392,689 L391,689 L391,687 L390,687 L390,686 L389,686 L389,684 L388,684 L388,682 L387,682 L387,679 L386,679 L386,677 L385,677 L385,676 L384,676 L384,674 L383,674 L383,671 L382,671 L382,667 L381,667 L381,665 L380,665 L380,663 L379,663 L379,659 L378,659 L378,657 L377,657 L377,653 L376,653 L376,650 L375,650 L375,647 L374,647 L374,644 L373,644 L373,641 L372,641 L372,635 L371,635 L371,631 L369,631 L369,628 L368,628 L368,622 L367,622 L367,619 L366,619 L366,614 L365,614 L365,609 L364,609 L364,606 L363,606 L363,604 L362,604 L362,600 L361,600 L361,597 L360,597 L360,592 L359,592 L359,587 L358,587 L358,582 L357,582 L357,579 L356,579 L356,575 L355,575 L355,571 L354,571 L354,569 L353,569 L353,565 L352,565 L352,560 L351,560 L351,557 L350,557 L350,552 L349,552 L349,548 L348,548 L348,544 L347,544 L347,542 L346,542 L346,538 L345,538 L345,535 L344,535 L344,532 L343,532 L343,529 L342,529 L342,526 L341,526 L341,521 L340,521 L340,518 L339,518 L339,516 L338,516 L338,513 L337,513 L337,511 L336,511 L336,509 L335,509 L335,506 L334,506 L334,502 L333,502 L333,501 L332,501 L332,498 L331,498 L331,496 L330,496 L330,494 L329,494 L329,490 L328,490 L328,488 L327,488 L327,486 L326,486 L326,484 L325,484 L325,482 L324,482 L324,480 L323,480 L323,478 L322,478 L322,477 L321,477 L321,475 L320,475 L320,474 L319,474 L319,472 L318,472 L318,470 L317,470 L317,469 L316,469 L316,467 L315,467 L315,466 L314,466 L314,465 L313,465 L313,464 L312,464 L312,462 L311,462 L311,461 L310,461 L310,459 L309,459 L309,458 L308,458 L308,457 L307,457 L307,456 L306,456 L306,455 L305,455 L305,454 L304,454 L304,452 L303,452 L303,451 L301,451 L301,450 L300,450 L300,449 L299,449 L299,448 L298,448 L298,447 L297,447 L297,446 L296,446 L296,445 L295,445 L295,444 L294,444 L294,443 L292,443 L292,442 L291,442 L291,441 L289,441 L289,440 L288,440 L288,439 L286,439 L286,438 L284,438 L284,437 L283,437 L283,436 L281,436 L281,435 L279,435 L279,434 L277,434 L277,433 L274,433 L274,432 L272,432 L272,431 L270,431 L270,430 L268,430 L268,429 L265,429 L265,428 L259,428 L259,427 L254,427 L254,426 L210,426 L210,694 L211,694 L211,701 L212,701 L212,712 L213,712 L213,714 L214,714 L214,717 L215,717 L215,719 L216,719 L216,720 L217,720 L217,722 L218,722 L218,724 L219,724 L219,725 L220,725 L220,726 L221,726 L221,728 L222,728 L222,729 L224,729 L224,730 L225,730 L225,731 L226,731 L226,732 L227,732 L227,733 L229,733 L229,734 L231,734 L231,735 L235,735 L235,736 L238,736 L238,737 L240,737 L240,738 L244,738 L244,739 L247,739 L247,740 L253,740 L253,741 L259,741 L259,742 L266,742 L266,743 L274,743 L274,744 L283,744 L283,745 L294,745 L294,746 L295,746 L295,747 L296,747 L296,748 L297,748 L297,749 L298,749 L298,761 L297,761 L297,763 L296,763 L296,764 L295,764 L295,765 L294,765 L294,766 L293,766 L293,767 L-1,767 L-1,766 L-3,766 L-3,764 L-4,764 L-4,763 L-5,763 L-5,749 L-4,749 L-4,747 L-3,747 L-3,746 L-1,746 L-1,745 L9,745 L9,744 L13,744 L13,743 L23,743 L23,742 L35,742 L35,741 L40,741 L40,740 L41,740 L41,739 L47,739 L47,738 L52,738 L52,737 L55,737 L55,736 L58,736 L58,735 L61,735 L61,734 L63,734 L63,733 L64,733 L64,732 L66,732 L66,731 L68,731 L68,730 L69,730 L69,729 L70,729 L70,728 L71,728 L71,727 L72,727 L72,726 L73,726 L73,725 L74,725 L74,723 L75,723 L75,722 L76,722 L76,720 L77,720 L77,718 L78,718 L78,716 L79,716 L79,714 L80,714 L80,710 L81,710 L81,706 L82,706 L82,699 L83,699 L83,690 L84,690 L84,89 L83,89 L83,81 L82,81 L82,74 L81,74 L81,68 L80,68 L80,64 L79,64 L79,61 L78,61 L78,59 L77,59 L77,56 L76,56 L76,55 L75,55 L75,53 L74,53 L74,52 L73,52 L73,51 L72,51 L72,50 L71,50 L71,49 L70,49 L70,48 L69,48 L69,47 L67,47 L67,46 L66,46 L66,45 L65,45 L65,44 L64,44 L64,43 L62,43 L62,42 L60,42 L60,41 L58,41 L58,40 L55,40 L55,39 L52,39 L52,38 L50,38 L50,36 L47,36 L47,35 L39,35 L39,34 L38,34 L38,33 L33,33 L33,32 L27,32 L27,31 L21,31 L21,30 L15,30 L15,29 L10,29 L10,28 L4,28 L4,27 L-1,27 L-1,26 L-2,26 L-2,25 L-3,25 L-3,24 L-4,24 L-4,23 L-5,23 L-5,4 L-4,4 L-4,3 L-3,3 L-3,2 L-2,2 L-2,1 L0,1 Z " fill="#F7F3ED" transform="translate(188,237)"/>
<path d="M0,0 L38,0 L38,1 L48,1 L48,2 L56,2 L56,3 L64,3 L64,4 L67,4 L67,5 L75,5 L75,6 L77,6 L77,7 L81,7 L81,8 L85,8 L85,9 L88,9 L88,10 L91,10 L91,11 L93,11 L93,12 L96,12 L96,13 L98,13 L98,14 L99,14 L99,15 L103,15 L103,16 L105,16 L105,18 L107,18 L107,19 L109,19 L109,20 L110,20 L110,21 L112,21 L112,22 L114,22 L114,23 L116,23 L116,24 L118,24 L118,25 L119,25 L119,26 L121,26 L121,27 L122,27 L122,28 L123,28 L123,29 L124,29 L124,30 L126,30 L126,31 L127,31 L127,32 L128,32 L128,33 L129,33 L129,34 L131,34 L131,35 L132,35 L132,36 L133,36 L133,37 L134,37 L134,38 L135,38 L135,39 L136,39 L136,40 L137,40 L137,41 L138,41 L138,42 L139,42 L139,43 L140,43 L140,44 L141,44 L141,45 L142,45 L142,46 L143,46 L143,47 L144,47 L144,48 L145,48 L145,50 L146,50 L146,51 L147,51 L147,53 L148,53 L148,54 L149,54 L149,55 L150,55 L150,56 L151,56 L151,58 L152,58 L152,60 L153,60 L153,61 L154,61 L154,63 L155,63 L155,64 L156,64 L156,66 L157,66 L157,67 L158,67 L158,69 L159,69 L159,71 L160,71 L160,74 L161,74 L161,76 L162,76 L162,79 L163,79 L163,81 L165,81 L165,83 L166,83 L166,86 L167,86 L167,89 L168,89 L168,92 L169,92 L169,96 L170,96 L170,100 L171,100 L171,103 L172,103 L172,104 L173,104 L173,108 L174,108 L174,112 L175,112 L175,115 L176,115 L176,120 L177,120 L177,128 L178,128 L178,133 L179,133 L179,138 L180,138 L180,145 L181,145 L181,161 L182,161 L182,193 L181,193 L181,199 L180,199 L180,209 L179,209 L179,216 L178,216 L178,217 L177,217 L177,224 L176,224 L176,229 L175,229 L175,233 L174,233 L174,237 L173,237 L173,241 L172,241 L172,245 L171,245 L171,249 L170,249 L170,251 L169,251 L169,255 L168,255 L168,259 L167,259 L167,262 L166,262 L166,264 L165,264 L165,267 L164,267 L164,269 L163,269 L163,272 L162,272 L162,273 L161,273 L161,275 L160,275 L160,277 L159,277 L159,279 L158,279 L158,281 L157,281 L157,283 L156,283 L156,285 L155,285 L155,287 L154,287 L154,289 L153,289 L153,290 L152,290 L152,292 L151,292 L151,294 L150,294 L150,295 L149,295 L149,296 L148,296 L148,298 L147,298 L147,299 L146,299 L146,301 L145,301 L145,302 L144,302 L144,303 L143,303 L143,304 L142,304 L142,305 L141,305 L141,307 L140,307 L140,308 L139,308 L139,309 L138,309 L138,311 L137,311 L137,312 L136,312 L136,313 L135,313 L135,314 L134,314 L134,315 L133,315 L133,316 L132,316 L132,317 L131,317 L131,318 L130,318 L130,319 L129,319 L129,320 L128,320 L128,321 L126,321 L126,322 L125,322 L125,323 L124,323 L124,324 L123,324 L123,325 L122,325 L122,326 L121,326 L121,327 L119,327 L119,328 L118,328 L118,329 L117,329 L117,330 L115,330 L115,331 L114,331 L114,332 L113,332 L113,333 L111,333 L111,334 L109,334 L109,335 L108,335 L108,336 L106,336 L106,337 L104,337 L104,338 L102,338 L102,339 L101,339 L101,340 L99,340 L99,341 L97,341 L97,342 L95,342 L95,343 L93,343 L93,344 L90,344 L90,345 L89,345 L89,346 L86,346 L86,347 L84,347 L84,348 L81,348 L81,349 L78,349 L78,350 L76,350 L76,351 L72,351 L72,352 L69,352 L69,353 L66,353 L66,354 L63,354 L63,355 L58,355 L58,356 L53,356 L53,357 L47,357 L47,358 L44,358 L44,359 L35,359 L35,360 L26,360 L26,361 L20,361 L20,362 L-56,362 L-56,32 L-55,32 L-55,29 L-54,29 L-54,21 L-53,21 L-53,18 L-52,18 L-52,16 L-51,16 L-51,14 L-50,14 L-50,13 L-49,13 L-49,12 L-48,12 L-48,11 L-47,11 L-47,10 L-46,10 L-46,9 L-45,9 L-45,8 L-43,8 L-43,7 L-41,7 L-41,6 L-37,6 L-37,5 L-35,5 L-35,4 L-27,4 L-27,3 L-21,3 L-21,2 L-14,2 L-14,1 L0,1 Z " fill="#4F6145" transform="translate(454,269)"/>
<path d="M0,0 L25,0 L25,1 L28,1 L28,2 L30,2 L30,3 L34,3 L34,4 L37,4 L37,5 L40,5 L40,6 L41,6 L41,7 L42,7 L42,8 L43,8 L43,9 L45,9 L45,10 L47,10 L47,11 L49,11 L49,12 L50,12 L50,13 L51,13 L51,14 L52,14 L52,15 L54,15 L54,16 L55,16 L55,17 L56,17 L56,18 L57,18 L57,19 L58,19 L58,20 L59,20 L59,21 L60,21 L60,22 L61,22 L61,23 L62,23 L62,24 L63,24 L63,26 L64,26 L64,27 L65,27 L65,29 L66,29 L66,31 L67,31 L67,33 L68,33 L68,35 L70,35 L70,37 L71,37 L71,40 L72,40 L72,42 L73,42 L73,46 L74,46 L74,49 L75,49 L75,55 L76,55 L76,74 L75,74 L75,77 L74,77 L74,83 L73,83 L73,85 L72,85 L72,88 L71,88 L71,90 L70,90 L70,94 L69,94 L69,96 L67,96 L67,98 L66,98 L66,100 L65,100 L65,102 L64,102 L64,103 L63,103 L63,104 L62,104 L62,106 L61,106 L61,107 L60,107 L60,108 L59,108 L59,109 L58,109 L58,110 L57,110 L57,111 L56,111 L56,112 L55,112 L55,113 L54,113 L54,114 L53,114 L53,115 L52,115 L52,116 L50,116 L50,117 L49,117 L49,118 L48,118 L48,119 L46,119 L46,120 L44,120 L44,121 L42,121 L42,122 L41,122 L41,123 L40,123 L40,124 L36,124 L36,125 L33,125 L33,126 L31,126 L31,127 L27,127 L27,128 L24,128 L24,129 L-1,129 L-1,128 L-6,128 L-6,127 L-8,127 L-8,126 L-10,126 L-10,125 L-13,125 L-13,124 L-16,124 L-16,123 L-18,123 L-18,122 L-20,122 L-20,121 L-21,121 L-21,120 L-23,120 L-23,119 L-25,119 L-25,118 L-26,118 L-26,117 L-27,117 L-27,116 L-28,116 L-28,115 L-29,115 L-29,114 L-30,114 L-30,113 L-32,113 L-32,112 L-33,112 L-33,111 L-34,111 L-34,110 L-35,110 L-35,108 L-36,108 L-36,107 L-37,107 L-37,106 L-38,106 L-38,105 L-39,105 L-39,103 L-40,103 L-40,102 L-41,102 L-41,101 L-42,101 L-42,99 L-43,99 L-43,97 L-44,97 L-44,95 L-45,95 L-45,93 L-46,93 L-46,90 L-47,90 L-47,89 L-48,89 L-48,87 L-49,87 L-49,84 L-50,84 L-50,81 L-51,81 L-51,74 L-52,74 L-52,54 L-51,54 L-51,50 L-50,50 L-50,47 L-49,47 L-49,43 L-48,43 L-48,42 L-47,42 L-47,38 L-46,38 L-46,36 L-45,36 L-45,34 L-44,34 L-44,33 L-43,33 L-43,31 L-42,31 L-42,29 L-41,29 L-41,28 L-40,28 L-40,27 L-39,27 L-39,25 L-38,25 L-38,24 L-37,24 L-37,23 L-36,23 L-36,22 L-35,22 L-35,21 L-34,21 L-34,20 L-33,20 L-33,19 L-32,19 L-32,18 L-31,18 L-31,17 L-30,17 L-30,16 L-29,16 L-29,15 L-28,15 L-28,14 L-27,14 L-27,13 L-25,13 L-25,12 L-24,12 L-24,11 L-22,11 L-22,10 L-21,10 L-21,9 L-20,9 L-20,8 L-18,8 L-18,7 L-16,7 L-16,6 L-14,6 L-14,5 L-11,5 L-11,4 L-9,4 L-9,3 L-5,3 L-5,2 L-3,2 L-3,1 L0,1 Z " fill="#F7F3ED" transform="translate(984,877)"/>
<path d="M0,0 L1,0 L1,2 L2,2 L2,1 L3,1 L3,4 L2,4 L2,6 L1,6 L1,7 L-2,7 L-2,8 L-3,8 L-3,10 L-2,10 L-2,14 L-4,14 L-4,21 L-3,21 L-3,22 L-2,22 L-2,27 L-3,27 L-3,28 L-4,28 L-4,26 L-5,26 L-5,29 L-6,29 L-6,349 L66,349 L66,348 L75,348 L75,349 L69,349 L69,350 L-7,350 L-7,20 L-6,20 L-6,17 L-5,17 L-5,9 L-4,9 L-4,6 L-3,6 L-3,4 L-2,4 L-2,2 L-1,2 L-1,1 L0,1 Z " fill="#5C6C54" transform="translate(405,281)"/>
<path d="M0,0 L1,0 L1,7 L2,7 L2,23 L3,23 L3,55 L2,55 L2,61 L1,61 L1,71 L0,71 L0,78 L-1,78 L-1,70 L0,70 L0,59 L-1,59 L-1,67 L-2,67 L-2,52 L-1,52 L-1,14 L-2,14 L-2,13 L-1,13 L-1,10 L0,10 Z " fill="#717E66" transform="translate(633,407)"/>
<path d="M0,0 L1,0 L1,1 L2,1 L2,2 L3,2 L3,8 L2,8 L2,9 L1,9 L1,10 L-1,10 L-1,11 L-4,11 L-4,12 L-5,12 L-5,13 L-25,13 L-25,12 L-28,12 L-28,11 L-32,11 L-32,10 L-35,10 L-35,9 L-37,9 L-37,8 L-39,8 L-39,7 L-41,7 L-41,6 L-40,6 L-40,4 L-36,4 L-36,5 L-35,5 L-35,6 L-32,6 L-32,7 L-28,7 L-28,8 L-24,8 L-24,9 L-23,9 L-23,11 L-20,11 L-20,12 L-11,12 L-11,10 L-8,10 L-8,8 L-4,8 L-4,6 L-1,6 L-1,5 L0,5 L0,4 L1,4 L1,2 L0,2 Z " fill="#748069" transform="translate(797,968)"/>
<path d="M0,0 L1,0 L1,1 L2,1 L2,13 L1,13 L1,15 L0,15 L0,16 L-1,16 L-1,17 L-2,17 L-2,18 L-7,18 L-7,17 L-4,17 L-4,16 L-82,16 L-82,15 L-8,15 L-8,12 L-5,12 L-5,11 L-4,11 L-4,10 L-3,10 L-3,9 L0,9 L0,12 L1,12 L1,2 L0,2 Z " fill="#F5F1EA" transform="translate(484,985)"/>
<path d="M0,0 L38,0 L38,1 L48,1 L48,2 L56,2 L56,3 L64,3 L64,4 L67,4 L67,5 L75,5 L75,6 L77,6 L77,7 L74,7 L74,8 L73,8 L73,6 L68,6 L68,7 L59,7 L59,6 L51,6 L51,5 L36,5 L36,4 L37,4 L37,3 L40,3 L40,4 L54,4 L54,3 L47,3 L47,2 L35,2 L35,1 L0,1 Z " fill="#6D7A63" transform="translate(454,269)"/>
<path d="M0,0 L1,0 L1,2 L2,2 L2,1 L3,1 L3,4 L2,4 L2,6 L1,6 L1,7 L-2,7 L-2,8 L-3,8 L-3,10 L-2,10 L-2,14 L-4,14 L-4,21 L-3,21 L-3,22 L-2,22 L-2,27 L-3,27 L-3,28 L-4,28 L-4,26 L-5,26 L-5,29 L-6,29 L-6,74 L-7,74 L-7,20 L-6,20 L-6,17 L-5,17 L-5,9 L-4,9 L-4,6 L-3,6 L-3,4 L-2,4 L-2,2 L-1,2 L-1,1 L0,1 Z " fill="#63725A" transform="translate(405,281)"/>
<path d="M0,0 L2,0 L2,1 L1,1 L1,2 L-2,2 L-2,3 L-4,3 L-4,4 L-2,4 L-2,5 L-3,5 L-3,7 L-8,7 L-8,6 L-17,6 L-17,7 L-19,7 L-19,10 L-20,10 L-20,11 L-21,11 L-21,12 L-24,12 L-24,13 L-25,13 L-25,12 L-31,12 L-31,11 L-32,11 L-32,10 L-27,10 L-27,9 L-34,9 L-34,11 L-36,11 L-36,10 L-44,10 L-44,11 L-52,11 L-52,10 L-48,10 L-48,9 L-38,9 L-38,8 L-26,8 L-26,7 L-21,7 L-21,6 L-20,6 L-20,5 L-14,5 L-14,4 L-9,4 L-9,3 L-6,3 L-6,2 L-3,2 L-3,1 L0,1 Z " fill="#F3EEE5" transform="translate(249,971)"/>
<path d="M0,0 L5,0 L5,1 L10,1 L10,2 L13,2 L13,3 L15,3 L15,5 L19,5 L19,6 L25,6 L25,7 L38,7 L38,6 L39,6 L39,5 L41,5 L41,6 L40,6 L40,7 L47,7 L47,9 L51,9 L51,10 L41,10 L41,9 L32,9 L32,8 L24,8 L24,7 L17,7 L17,6 L11,6 L11,5 L5,5 L5,4 L2,4 L2,3 L-2,3 L-2,2 L2,2 L2,1 L0,1 Z " fill="#77836D" transform="translate(430,972)"/>
<path d="M0,0 L1,0 L1,2 L3,2 L3,3 L2,3 L2,4 L3,4 L3,6 L2,6 L2,7 L1,7 L1,9 L0,9 L0,11 L-1,11 L-1,13 L-2,13 L-2,16 L-3,16 L-3,17 L-4,17 L-4,19 L-5,19 L-5,21 L-6,21 L-6,23 L-7,23 L-7,21 L-8,21 L-8,23 L-9,23 L-9,25 L-10,25 L-10,27 L-12,27 L-12,25 L-11,25 L-11,23 L-10,23 L-10,21 L-9,21 L-9,19 L-8,19 L-8,17 L-6,17 L-6,13 L-5,13 L-5,11 L-4,11 L-4,8 L-3,8 L-3,6 L-2,6 L-2,5 L-1,5 L-1,2 L0,2 Z " fill="#65745C" transform="translate(744,510)"/>
<path d="M0,0 L8,0 L8,1 L5,1 L5,2 L3,2 L3,3 L2,3 L2,4 L4,4 L4,6 L5,6 L5,9 L4,9 L4,8 L3,8 L3,7 L-3,7 L-3,15 L-1,15 L-1,16 L0,16 L0,17 L1,17 L1,18 L4,18 L4,19 L2,19 L2,20 L-2,20 L-2,19 L-3,19 L-3,18 L-4,18 L-4,4 L-3,4 L-3,2 L-2,2 L-2,1 L0,1 Z " fill="#E8E7DF" transform="translate(187,982)"/>
<path d="M0,0 L1,0 L1,3 L2,3 L2,8 L3,8 L3,12 L4,12 L4,14 L5,14 L5,18 L6,18 L6,22 L7,22 L7,25 L8,25 L8,30 L9,30 L9,35 L10,35 L10,39 L9,39 L9,37 L8,37 L8,35 L7,35 L7,32 L6,32 L6,28 L5,28 L5,25 L4,25 L4,21 L5,21 L5,20 L3,20 L3,17 L2,17 L2,13 L1,13 L1,4 L0,4 Z " fill="#5D6C52" transform="translate(538,794)"/>
<path d="M0,0 L2,0 L2,2 L0,2 L0,3 L-1,3 L-1,4 L-2,4 L-2,19 L-1,19 L-1,17 L0,17 L0,20 L-1,20 L-1,22 L3,22 L3,24 L2,24 L2,25 L7,25 L7,24 L8,24 L8,26 L13,26 L13,25 L14,25 L14,24 L17,24 L17,25 L20,25 L20,26 L14,26 L14,27 L20,27 L20,28 L21,28 L21,29 L17,29 L17,28 L12,28 L12,27 L6,27 L6,26 L1,26 L1,25 L0,25 L0,24 L-1,24 L-1,23 L-2,23 L-2,22 L-3,22 L-3,3 L-2,3 L-2,2 L-1,2 L-1,1 L0,1 Z " fill="#DBDBD1" transform="translate(186,238)"/>
<path d="M0,0 L2,0 L2,1 L3,1 L3,2 L6,2 L6,3 L10,3 L10,4 L13,4 L13,2 L12,2 L12,1 L14,1 L14,2 L18,2 L18,4 L23,4 L23,5 L27,5 L27,6 L23,6 L23,7 L25,7 L25,8 L21,8 L21,7 L17,7 L17,6 L13,6 L13,5 L7,5 L7,4 L2,4 L2,3 L-2,3 L-2,2 L-5,2 L-5,1 L0,1 Z " fill="#65735B" transform="translate(585,241)"/>
<path d="M0,0 L4,0 L4,1 L1,1 L1,2 L0,2 L0,3 L-1,3 L-1,4 L-6,4 L-6,3 L-9,3 L-9,4 L-22,4 L-22,5 L-11,5 L-11,6 L-25,6 L-25,3 L-27,3 L-27,4 L-29,4 L-29,3 L-28,3 L-28,2 L-3,2 L-3,1 L0,1 Z " fill="#58694F" transform="translate(1011,1004)"/>
<path d="M0,0 L1,0 L1,2 L9,2 L9,3 L4,3 L4,4 L10,4 L10,3 L21,3 L21,2 L30,2 L30,3 L25,3 L25,4 L13,4 L13,5 L3,5 L3,6 L-1,6 L-1,7 L-10,7 L-10,6 L-3,6 L-3,5 L-2,5 L-2,4 L-3,4 L-3,2 L0,2 Z " fill="#66745B" transform="translate(198,975)"/>
<path d="M0,0 L2,0 L2,2 L3,2 L3,3 L4,3 L4,4 L5,4 L5,5 L6,5 L6,4 L10,4 L10,7 L11,7 L11,9 L12,9 L12,10 L10,10 L10,11 L12,11 L12,13 L13,13 L13,14 L15,14 L15,13 L17,13 L17,14 L16,14 L16,17 L14,17 L14,16 L13,16 L13,15 L12,15 L12,14 L11,14 L11,13 L10,13 L10,12 L9,12 L9,11 L7,11 L7,10 L6,10 L6,9 L5,9 L5,8 L4,8 L4,6 L3,6 L3,5 L2,5 L2,4 L1,4 L1,3 L0,3 Z " fill="#EEEEEA" transform="translate(945,979)"/>
<path d="M0,0 L4,0 L4,1 L5,1 L5,2 L8,2 L8,3 L12,3 L12,4 L16,4 L16,5 L17,5 L17,7 L20,7 L20,8 L16,8 L16,7 L8,7 L8,6 L5,6 L5,5 L3,5 L3,4 L1,4 L1,3 L-1,3 L-1,2 L0,2 Z " fill="#536549" transform="translate(757,972)"/>
<path d="M0,0 L1,0 L1,2 L2,2 L2,7 L3,7 L3,8 L4,8 L4,9 L5,9 L5,10 L4,10 L4,12 L5,12 L5,16 L6,16 L6,21 L5,21 L5,23 L4,23 L4,20 L3,20 L3,17 L2,17 L2,13 L1,13 L1,9 L0,9 L0,6 L-1,6 L-1,3 L-2,3 L-2,1 L0,1 Z " fill="#526449" transform="translate(703,888)"/>
<path d="M0,0 L1,0 L1,4 L0,4 L0,6 L1,6 L1,5 L2,5 L2,7 L3,7 L3,11 L2,11 L2,12 L1,12 L1,13 L0,13 L0,14 L1,14 L1,15 L0,15 L0,16 L-1,16 L-1,18 L-2,18 L-2,15 L-4,15 L-4,18 L-5,18 L-5,14 L-4,14 L-4,11 L-3,11 L-3,7 L-2,7 L-2,6 L-1,6 L-1,2 L0,2 Z " fill="#E4E3D9" transform="translate(938,913)"/>
<path d="M0,0 L1,0 L1,2 L2,2 L2,1 L3,1 L3,3 L2,3 L2,9 L3,9 L3,10 L4,10 L4,18 L5,18 L5,26 L6,26 L6,23 L7,23 L7,28 L6,28 L6,44 L5,44 L5,28 L4,28 L4,21 L3,21 L3,16 L2,16 L2,11 L1,11 L1,3 L0,3 Z " fill="#DFDFD7" transform="translate(630,386)"/>
<path d="M0,0 L5,0 L5,1 L6,1 L6,2 L7,2 L7,3 L9,3 L9,6 L10,6 L10,7 L12,7 L12,8 L13,8 L13,9 L14,9 L14,10 L15,10 L15,11 L16,11 L16,14 L15,14 L15,15 L14,15 L14,14 L13,14 L13,13 L12,13 L12,12 L11,12 L11,11 L10,11 L10,9 L9,9 L9,8 L8,8 L8,7 L7,7 L7,6 L5,6 L5,5 L4,5 L4,4 L3,4 L3,3 L2,3 L2,2 L1,2 L1,1 L0,1 Z " fill="#5C6B52" transform="translate(606,674)"/>
<path d="M0,0 L1,0 L1,2 L0,2 L0,4 L1,4 L1,6 L0,6 L0,7 L-1,7 L-1,8 L-2,8 L-2,9 L-3,9 L-3,11 L-4,11 L-4,12 L-5,12 L-5,13 L-7,13 L-7,12 L-9,12 L-9,11 L-11,11 L-11,12 L-13,12 L-13,11 L-12,11 L-12,10 L-10,10 L-10,9 L-9,9 L-9,8 L-7,8 L-7,7 L-6,7 L-6,6 L-5,6 L-5,5 L-3,5 L-3,3 L-2,3 L-2,2 L-1,2 L-1,1 L0,1 Z " fill="#53654A" transform="translate(828,983)"/>
<path d="M0,0 L2,0 L2,1 L1,1 L1,2 L0,2 L0,3 L-1,3 L-1,4 L1,4 L1,5 L0,5 L0,6 L-1,6 L-1,7 L-2,7 L-2,8 L-4,8 L-4,9 L-6,9 L-6,10 L-7,10 L-7,11 L-8,11 L-8,12 L-9,12 L-9,13 L-12,13 L-12,12 L-14,12 L-14,11 L-13,11 L-13,10 L-12,10 L-12,9 L-10,9 L-10,8 L-9,8 L-9,7 L-7,7 L-7,6 L-6,6 L-6,5 L-5,5 L-5,4 L-3,4 L-3,3 L-2,3 L-2,2 L-1,2 L-1,1 L0,1 Z " fill="#63725A" transform="translate(682,595)"/>
<path d="M0,0 L1,0 L1,13 L2,13 L2,31 L1,31 L1,38 L0,38 L0,30 L1,30 L1,19 L0,19 L0,27 L-1,27 L-1,12 L0,12 Z " fill="#67755C" transform="translate(632,447)"/>
<path d="M0,0 L2,0 L2,1 L1,1 L1,3 L2,3 L2,2 L6,2 L6,3 L7,3 L7,5 L9,5 L9,6 L10,6 L10,8 L13,8 L13,10 L12,10 L12,12 L11,12 L11,11 L9,11 L9,10 L8,10 L8,9 L7,9 L7,8 L5,8 L5,7 L4,7 L4,6 L2,6 L2,5 L1,5 L1,4 L0,4 L0,3 L-1,3 L-1,2 L-2,2 L-2,1 L0,1 Z M13,7 L14,7 L14,8 L13,8 Z " fill="#E3E1D7" transform="translate(787,957)"/>
<path d="M0,0 L1,0 L1,1 L3,1 L3,3 L4,3 L4,4 L5,4 L5,7 L8,7 L8,9 L7,9 L7,10 L6,10 L6,14 L4,14 L4,13 L3,13 L3,17 L2,17 L2,5 L1,5 L1,4 L0,4 L0,3 L-1,3 L-1,2 L0,2 Z " fill="#526347" transform="translate(484,981)"/>
<path d="M0,0 L1,0 L1,1 L2,1 L2,2 L3,2 L3,3 L4,3 L4,5 L5,5 L5,6 L6,6 L6,7 L7,7 L7,8 L9,8 L9,9 L10,9 L10,10 L11,10 L11,11 L9,11 L9,12 L7,12 L7,11 L8,11 L8,9 L6,9 L6,10 L4,10 L4,11 L3,11 L3,10 L1,10 L1,8 L0,8 L0,6 L-1,6 L-1,2 L0,2 Z " fill="#5A6B50" transform="translate(945,982)"/>
<path d="M0,0 L1,0 L1,2 L0,2 L0,3 L-1,3 L-1,5 L-2,5 L-2,6 L-1,6 L-1,7 L0,7 L0,8 L-1,8 L-1,9 L-2,9 L-2,10 L-3,10 L-3,11 L-4,11 L-4,12 L-5,12 L-5,13 L-7,13 L-7,15 L-8,15 L-8,14 L-9,14 L-9,15 L-10,15 L-10,16 L-11,16 L-11,14 L-10,14 L-10,13 L-9,13 L-9,11 L-8,11 L-8,9 L-7,9 L-7,8 L-6,8 L-6,7 L-5,7 L-5,5 L-4,5 L-4,4 L-3,4 L-3,3 L-2,3 L-2,2 L-1,2 L-1,1 L0,1 Z " fill="#E4E2D6" transform="translate(950,897)"/>
<path d="M0,0 L1,0 L1,2 L7,2 L7,3 L2,3 L2,4 L18,4 L18,5 L0,5 L0,6 L-2,6 L-2,7 L-6,7 L-6,8 L-7,8 L-7,9 L-8,9 L-8,6 L-4,6 L-4,5 L-6,5 L-6,4 L-4,4 L-4,3 L-1,3 L-1,1 L0,1 Z " fill="#6A775F" transform="translate(799,910)"/>
<path d="M0,0 L3,0 L3,1 L4,1 L4,0 L5,0 L5,1 L11,1 L11,2 L6,2 L6,3 L12,3 L12,1 L13,1 L13,2 L20,2 L20,3 L13,3 L13,4 L7,4 L7,5 L-1,5 L-1,1 L0,1 Z " fill="#EAE8E0" transform="translate(420,268)"/>
<path d="M0,0 L2,0 L2,1 L1,1 L1,2 L-2,2 L-2,3 L-4,3 L-4,4 L-2,4 L-2,5 L-3,5 L-3,7 L-8,7 L-8,6 L-17,6 L-17,7 L-21,7 L-21,6 L-20,6 L-20,5 L-14,5 L-14,4 L-9,4 L-9,3 L-6,3 L-6,2 L-3,2 L-3,1 L0,1 Z " fill="#D1D3C7" transform="translate(249,971)"/>
<path d="M0,0 L2,0 L2,1 L1,1 L1,2 L3,2 L3,3 L1,3 L1,5 L0,5 L0,6 L-2,6 L-2,7 L-3,7 L-3,8 L-6,8 L-6,7 L-9,7 L-9,10 L-14,10 L-14,9 L-13,9 L-13,8 L-11,8 L-11,7 L-10,7 L-10,6 L-8,6 L-8,5 L-6,5 L-6,4 L-4,4 L-4,3 L-3,3 L-3,2 L-1,2 L-1,1 L0,1 Z " fill="#697860" transform="translate(666,607)"/>
<path d="M0,0 L5,0 L5,1 L10,1 L10,2 L13,2 L13,3 L15,3 L15,5 L5,5 L5,4 L2,4 L2,3 L-2,3 L-2,2 L2,2 L2,1 L0,1 Z " fill="#637259" transform="translate(430,972)"/>
<path d="M0,0 L1,0 L1,7 L2,7 L2,11 L1,11 L1,14 L0,14 L0,17 L-1,17 L-1,18 L-2,18 L-2,17 L-4,17 L-4,14 L-3,14 L-3,10 L-2,10 L-2,8 L-1,8 L-1,4 L0,4 Z " fill="#516147" transform="translate(749,493)"/>
<path d="M0,0 L4,0 L4,2 L5,2 L5,3 L10,3 L10,4 L13,4 L13,8 L14,8 L14,9 L15,9 L15,11 L14,11 L14,13 L13,13 L13,11 L12,11 L12,10 L11,10 L11,9 L10,9 L10,8 L9,8 L9,7 L8,7 L8,6 L7,6 L7,5 L5,5 L5,4 L4,4 L4,3 L3,3 L3,2 L2,2 L2,1 L0,1 Z M10,2 L11,2 L11,3 L10,3 Z " fill="#E9E7DF" transform="translate(250,279)"/>
<path d="M0,0 L12,0 L12,1 L6,1 L6,2 L10,2 L10,4 L8,4 L8,5 L7,5 L7,6 L6,6 L6,7 L5,7 L5,5 L1,5 L1,4 L0,4 L0,2 L-2,2 L-2,1 L0,1 Z M5,4 L5,5 L6,5 L6,4 Z M4,7 L5,7 L5,8 L4,8 Z " fill="#F1EDE5" transform="translate(775,981)"/>
<path d="M0,0 L6,0 L6,2 L2,2 L2,3 L6,3 L6,4 L1,4 L1,5 L-8,5 L-8,4 L-9,4 L-9,3 L-8,3 L-8,2 L-2,2 L-2,1 L0,1 Z " fill="#EFEDE6" transform="translate(778,1002)"/>
<path d="M0,0 L8,0 L8,2 L16,2 L16,4 L19,4 L19,5 L15,5 L15,4 L8,4 L8,3 L-2,3 L-2,1 L0,1 Z " fill="#5D6D53" transform="translate(559,237)"/>
<path d="M0,0 L2,0 L2,1 L1,1 L1,2 L0,2 L0,3 L-1,3 L-1,5 L-2,5 L-2,6 L-3,6 L-3,5 L-5,5 L-5,6 L-7,6 L-7,7 L-10,7 L-10,6 L-14,6 L-14,8 L-15,8 L-15,7 L-17,7 L-17,6 L-15,6 L-15,5 L-11,5 L-11,4 L-8,4 L-8,3 L-6,3 L-6,2 L-3,2 L-3,1 L0,1 Z " fill="#6E7D65" transform="translate(615,633)"/>
<path d="M0,0 L4,0 L4,1 L8,1 L8,2 L16,2 L16,3 L22,3 L22,4 L15,4 L15,5 L17,5 L17,6 L14,6 L14,3 L9,3 L9,4 L13,4 L13,5 L8,5 L8,3 L6,3 L6,4 L1,4 L1,3 L3,3 L3,1 L1,1 L1,2 L0,2 Z " fill="#596950" transform="translate(692,1005)"/>
<path d="M0,0 L7,0 L7,3 L8,3 L8,2 L16,2 L16,3 L20,3 L20,4 L17,4 L17,6 L16,6 L16,5 L11,5 L11,6 L10,6 L10,4 L6,4 L6,3 L3,3 L3,1 L0,1 Z " fill="#55664B" transform="translate(218,271)"/>
<path d="M0,0 L2,0 L2,2 L3,2 L3,4 L4,4 L4,6 L7,6 L7,7 L6,7 L6,9 L7,9 L7,10 L8,10 L8,11 L9,11 L9,12 L7,12 L7,13 L6,13 L6,12 L5,12 L5,10 L4,10 L4,9 L3,9 L3,8 L2,8 L2,7 L1,7 L1,5 L0,5 L0,4 L-1,4 L-1,2 L-2,2 L-2,1 L0,1 Z " fill="#58674E" transform="translate(725,943)"/>
<path d="M0,0 L1,0 L1,1 L2,1 L2,3 L3,3 L3,4 L4,4 L4,5 L5,5 L5,7 L6,7 L6,8 L7,8 L7,10 L8,10 L8,11 L6,11 L6,14 L5,14 L5,12 L4,12 L4,10 L3,10 L3,9 L2,9 L2,7 L1,7 L1,5 L0,5 L0,4 L-1,4 L-1,3 L-2,3 L-2,2 L0,2 Z " fill="#55654A" transform="translate(634,701)"/>
<path d="M0,0 L1,0 L1,3 L2,3 L2,11 L1,11 L1,22 L0,22 L0,14 L-1,14 L-1,7 L-2,7 L-2,3 L-1,3 L-1,4 L0,4 Z " fill="#DBDBD3" transform="translate(271,304)"/>
<path d="M0,0 L2,0 L2,1 L4,1 L4,2 L6,2 L6,3 L8,3 L8,4 L6,4 L6,6 L7,6 L7,5 L10,5 L10,6 L11,6 L11,8 L12,8 L12,9 L10,9 L10,8 L8,8 L8,7 L5,7 L5,6 L4,6 L4,5 L2,5 L2,4 L0,4 L0,3 L-2,3 L-2,2 L-3,2 L-3,1 L-1,1 L-1,2 L1,2 L1,1 L0,1 Z " fill="#D9D8CC" transform="translate(637,981)"/>
<path d="M0,0 L3,0 L3,1 L7,1 L7,2 L6,2 L6,4 L7,4 L7,3 L9,3 L9,5 L7,5 L7,6 L9,6 L9,8 L7,8 L7,7 L5,7 L5,5 L4,5 L4,4 L1,4 L1,3 L-2,3 L-2,2 L-4,2 L-4,1 L0,1 Z " fill="#5A6950" transform="translate(567,647)"/>
<path d="M0,0 L3,0 L3,1 L2,1 L2,2 L1,2 L1,3 L-3,3 L-3,4 L-6,4 L-6,5 L-8,5 L-8,6 L-12,6 L-12,5 L-16,5 L-16,4 L-15,4 L-15,3 L-12,3 L-12,2 L-8,2 L-8,3 L-4,3 L-4,1 L-3,1 L-3,2 L0,2 Z " fill="#EBEAE2" transform="translate(1023,998)"/>
<path d="M0,0 L1,0 L1,3 L2,3 L2,8 L3,8 L3,12 L4,12 L4,14 L5,14 L5,18 L6,18 L6,22 L5,22 L5,20 L3,20 L3,17 L2,17 L2,13 L1,13 L1,4 L0,4 Z " fill="#69765E" transform="translate(538,794)"/>
<path d="M0,0 L1,0 L1,6 L0,6 L0,4 L-1,4 L-1,5 L-2,5 L-2,11 L-3,11 L-3,13 L-4,13 L-4,14 L-5,14 L-5,15 L-6,15 L-6,13 L-7,13 L-7,14 L-8,14 L-8,12 L-7,12 L-7,11 L-6,11 L-6,9 L-5,9 L-5,8 L-4,8 L-4,6 L-3,6 L-3,4 L-2,4 L-2,3 L-1,3 L-1,1 L0,1 Z " fill="#68765F" transform="translate(729,541)"/>
<path d="M0,0 L4,0 L4,1 L3,1 L3,3 L2,3 L2,2 L-1,2 L-1,3 L-4,3 L-4,4 L-6,4 L-6,7 L-10,7 L-10,6 L-8,6 L-8,5 L-11,5 L-11,8 L-13,8 L-13,9 L-14,9 L-14,7 L-12,7 L-12,6 L-16,6 L-16,5 L-12,5 L-12,4 L-8,4 L-8,3 L-5,3 L-5,2 L-2,2 L-2,1 L0,1 Z " fill="#738169" transform="translate(804,999)"/>
<path d="M0,0 L4,0 L4,1 L6,1 L6,2 L5,2 L5,3 L2,3 L2,4 L0,4 L0,5 L-1,5 L-1,6 L-5,6 L-5,7 L-8,7 L-8,6 L-7,6 L-7,5 L-4,5 L-4,4 L-2,4 L-2,3 L-5,3 L-5,2 L-3,2 L-3,1 L0,1 Z " fill="#627158" transform="translate(1020,1001)"/>
<path d="M0,0 L4,0 L4,1 L5,1 L5,0 L9,0 L9,1 L7,1 L7,2 L6,2 L6,3 L4,3 L4,4 L2,4 L2,5 L0,5 L0,6 L-1,6 L-1,7 L-3,7 L-3,6 L-2,6 L-2,5 L-4,5 L-4,4 L-3,4 L-3,3 L-2,3 L-2,2 L0,2 Z " fill="#EFEBE2" transform="translate(809,992)"/>
<path d="M0,0 L2,0 L2,1 L3,1 L3,2 L5,2 L5,3 L3,3 L3,5 L5,5 L5,6 L4,6 L4,8 L7,8 L7,10 L8,10 L8,12 L9,12 L9,14 L10,14 L10,15 L9,15 L9,16 L8,16 L8,15 L6,15 L6,12 L5,12 L5,10 L4,10 L4,9 L3,9 L3,7 L2,7 L2,3 L1,3 L1,1 L0,1 Z " fill="#526348" transform="translate(739,349)"/>
<path d="M0,0 L2,0 L2,1 L3,1 L3,2 L4,2 L4,3 L6,3 L6,4 L8,4 L8,5 L10,5 L10,6 L11,6 L11,7 L13,7 L13,8 L15,8 L15,9 L14,9 L14,11 L12,11 L12,10 L11,10 L11,9 L9,9 L9,8 L7,8 L7,5 L3,5 L3,4 L2,4 L2,3 L1,3 L1,1 L0,1 Z " fill="#EDEBE3" transform="translate(659,268)"/>
<path d="M0,0 L1,0 L1,1 L2,1 L2,13 L1,13 L1,15 L0,15 L0,16 L-1,16 L-1,17 L-2,17 L-2,18 L-7,18 L-7,17 L-4,17 L-4,16 L-7,16 L-7,15 L-3,15 L-3,14 L-2,14 L-2,13 L-1,13 L-1,11 L0,11 L0,12 L1,12 L1,2 L0,2 Z " fill="#E0DFD4" transform="translate(484,985)"/>
<path d="M0,0 L1,0 L1,1 L3,1 L3,2 L5,2 L5,3 L8,3 L8,4 L11,4 L11,5 L13,5 L13,6 L11,6 L11,7 L6,7 L6,6 L3,6 L3,5 L2,5 L2,2 L0,2 Z " fill="#57684D" transform="translate(963,998)"/>
<path d="M0,0 L10,0 L10,1 L11,1 L11,2 L12,2 L12,3 L10,3 L10,4 L9,4 L9,2 L6,2 L6,4 L4,4 L4,6 L2,6 L2,5 L3,5 L3,4 L1,4 L1,3 L2,3 L2,2 L0,2 Z " fill="#EDEAE1" transform="translate(472,982)"/>
<path d="M0,0 L1,0 L1,1 L2,1 L2,2 L3,2 L3,8 L2,8 L2,9 L1,9 L1,10 L-1,10 L-1,11 L-3,11 L-3,10 L-2,10 L-2,8 L-4,8 L-4,6 L-1,6 L-1,5 L0,5 L0,4 L1,4 L1,2 L0,2 Z " fill="#617157" transform="translate(797,968)"/>
<path d="M0,0 L1,0 L1,3 L2,3 L2,5 L3,5 L3,6 L4,6 L4,8 L5,8 L5,10 L6,10 L6,11 L5,11 L5,12 L3,12 L3,11 L2,11 L2,10 L1,10 L1,9 L0,9 L0,6 L-1,6 L-1,2 L0,2 Z " fill="#EBE8DF" transform="translate(401,951)"/>
<path d="M0,0 L1,0 L1,2 L2,2 L2,1 L3,1 L3,4 L2,4 L2,6 L1,6 L1,7 L-2,7 L-2,8 L-3,8 L-3,10 L-4,10 L-4,13 L-5,13 L-5,9 L-4,9 L-4,6 L-3,6 L-3,4 L-2,4 L-2,2 L-1,2 L-1,1 L0,1 Z " fill="#75826C" transform="translate(405,281)"/>
<path d="M0,0 L2,0 L2,2 L3,2 L3,1 L5,1 L5,3 L6,3 L6,4 L7,4 L7,5 L6,5 L6,6 L7,6 L7,8 L8,8 L8,10 L7,10 L7,9 L6,9 L6,11 L5,11 L5,9 L4,9 L4,7 L3,7 L3,5 L2,5 L2,3 L1,3 L1,1 L0,1 Z M5,0 L6,0 L6,1 L5,1 Z " fill="#526449" transform="translate(646,726)"/>
<path d="M0,0 L1,0 L1,4 L4,4 L4,7 L5,7 L5,9 L6,9 L6,13 L5,13 L5,14 L4,14 L4,13 L3,13 L3,10 L2,10 L2,8 L1,8 L1,6 L0,6 Z " fill="#E3E2DA" transform="translate(517,725)"/>
<path d="M0,0 L3,0 L3,1 L4,1 L4,2 L6,2 L6,4 L7,4 L7,5 L9,5 L9,4 L8,4 L8,3 L9,3 L9,2 L10,2 L10,9 L9,9 L9,8 L8,8 L8,7 L6,7 L6,6 L5,6 L5,5 L3,5 L3,4 L1,4 L1,3 L0,3 L0,2 L2,2 L2,1 L0,1 Z " fill="#E7E5DC" transform="translate(471,671)"/>
<path d="M0,0 L4,0 L4,1 L1,1 L1,2 L0,2 L0,3 L-1,3 L-1,4 L-6,4 L-6,3 L-22,3 L-22,2 L-3,2 L-3,1 L0,1 Z " fill="#7B8772" transform="translate(1011,1004)"/>
<path d="M0,0 L2,0 L2,1 L5,1 L5,2 L8,2 L8,3 L10,3 L10,4 L14,4 L14,5 L11,5 L11,7 L9,7 L9,6 L6,6 L6,4 L3,4 L3,3 L1,3 L1,1 L0,1 Z " fill="#59694F" transform="translate(665,997)"/>
<path d="M0,0 L2,0 L2,1 L5,1 L5,2 L7,2 L7,3 L9,3 L9,4 L11,4 L11,5 L14,5 L14,6 L11,6 L11,7 L10,7 L10,6 L6,6 L6,5 L4,5 L4,3 L1,3 L1,2 L0,2 Z M3,5 L4,5 L4,6 L3,6 Z " fill="#ECECE7" transform="translate(751,973)"/>
<path d="M0,0 L1,0 L1,11 L2,11 L2,17 L-1,17 L-1,20 L-2,20 L-2,16 L-1,16 L-1,9 L0,9 Z " fill="#DBDCD3" transform="translate(271,927)"/>
<path d="M0,0 L1,0 L1,3 L2,3 L2,6 L3,6 L3,9 L4,9 L4,10 L7,10 L7,12 L8,12 L8,16 L7,16 L7,14 L6,14 L6,17 L5,17 L5,14 L4,14 L4,13 L3,13 L3,10 L2,10 L2,7 L1,7 L1,4 L0,4 Z " fill="#7B8671" transform="translate(692,862)"/>
<path d="M0,0 L6,0 L6,1 L11,1 L11,2 L17,2 L17,3 L20,3 L20,4 L16,4 L16,3 L9,3 L9,5 L8,5 L8,3 L6,3 L6,2 L3,2 L3,4 L1,4 L1,3 L2,3 L2,1 L0,1 Z " fill="#6C7A61" transform="translate(436,663)"/>
<path d="M0,0 L2,0 L2,1 L1,1 L1,3 L-1,3 L-1,4 L-3,4 L-3,5 L-4,5 L-4,6 L-5,6 L-5,7 L-12,7 L-12,5 L-9,5 L-9,4 L-5,4 L-5,3 L-4,3 L-4,2 L-2,2 L-2,1 L0,1 Z " fill="#6A7860" transform="translate(636,624)"/>
<path d="M0,0 L1,0 L1,1 L3,1 L3,2 L4,2 L4,3 L5,3 L5,4 L6,4 L6,5 L8,5 L8,6 L9,6 L9,7 L10,7 L10,8 L9,8 L9,9 L8,9 L8,8 L7,8 L7,7 L4,7 L4,6 L3,6 L3,5 L1,5 L1,4 L-1,4 L-1,1 L0,1 Z " fill="#57674C" transform="translate(249,279)"/>
<path d="M0,0 L4,0 L4,1 L7,1 L7,2 L15,2 L15,3 L17,3 L17,4 L14,4 L14,5 L13,5 L13,3 L8,3 L8,4 L2,4 L2,3 L1,3 L1,1 L0,1 Z " fill="#637258" transform="translate(514,272)"/>
<path d="M0,0 L1,0 L1,1 L4,1 L4,2 L2,2 L2,3 L-2,3 L-2,4 L-4,4 L-4,5 L-6,5 L-6,6 L-7,6 L-7,7 L-8,7 L-8,8 L-9,8 L-9,9 L-10,9 L-10,10 L-11,10 L-11,8 L-12,8 L-12,7 L-10,7 L-10,6 L-9,6 L-9,5 L-7,5 L-7,2 L-6,2 L-6,3 L-3,3 L-3,1 L0,1 Z " fill="#EBEAE3" transform="translate(415,272)"/>
<path d="M0,0 L5,0 L5,1 L6,1 L6,2 L9,2 L9,3 L10,3 L10,4 L7,4 L7,6 L5,6 L5,5 L2,5 L2,4 L0,4 L0,2 L2,2 L2,1 L0,1 Z " fill="#E1DFD4" transform="translate(238,271)"/>
<path d="M0,0 L4,0 L4,1 L2,1 L2,2 L6,2 L6,3 L3,3 L3,4 L-1,4 L-1,5 L-5,5 L-5,4 L-6,4 L-6,3 L-5,3 L-5,2 L-4,2 L-4,1 L0,1 Z " fill="#EFEDE6" transform="translate(793,999)"/>
<path d="M0,0 L3,0 L3,3 L6,3 L6,7 L7,7 L7,9 L6,9 L6,11 L5,11 L5,10 L4,10 L4,8 L3,8 L3,6 L2,6 L2,4 L1,4 L1,2 L0,2 Z " fill="#F1EEE6" transform="translate(938,968)"/>
<path d="M0,0 L4,0 L4,1 L5,1 L5,2 L4,2 L4,3 L5,3 L5,4 L7,4 L7,5 L8,5 L8,6 L9,6 L9,7 L10,7 L10,9 L9,9 L9,11 L8,11 L8,10 L7,10 L7,9 L6,9 L6,7 L5,7 L5,6 L4,6 L4,4 L3,4 L3,3 L2,3 L2,2 L1,2 L1,1 L0,1 Z " fill="#EBE8DF" transform="translate(494,692)"/>
<path d="M0,0 L1,0 L1,1 L3,1 L3,2 L6,2 L6,3 L9,3 L9,4 L10,4 L10,6 L12,6 L12,7 L15,7 L15,8 L14,8 L14,9 L12,9 L12,10 L11,10 L11,8 L8,8 L8,4 L5,4 L5,3 L1,3 L1,4 L0,4 Z " fill="#D8D9CF" transform="translate(562,648)"/>
<path d="M0,0 L1,0 L1,2 L2,2 L2,7 L3,7 L3,12 L2,12 L2,14 L1,14 L1,10 L0,10 L0,6 L-1,6 L-1,3 L-2,3 L-2,1 L-1,1 L-1,2 L0,2 Z " fill="#58674E" transform="translate(751,374)"/>
<path d="M0,0 L3,0 L3,1 L5,1 L5,2 L6,2 L6,4 L7,4 L7,5 L8,5 L8,7 L9,7 L9,9 L7,9 L7,10 L6,10 L6,8 L5,8 L5,6 L4,6 L4,5 L3,5 L3,3 L2,3 L2,2 L1,2 L1,1 L0,1 Z " fill="#55654B" transform="translate(724,324)"/>
<path d="M0,0 L2,0 L2,1 L4,1 L4,2 L6,2 L6,3 L8,3 L8,4 L10,4 L10,5 L8,5 L8,6 L5,6 L5,5 L2,5 L2,4 L1,4 L1,5 L0,5 L0,3 L-1,3 L-1,2 L0,2 Z " fill="#F3EFE7" transform="translate(647,263)"/>
<path d="M0,0 L8,0 L8,1 L4,1 L4,3 L2,3 L2,2 L-6,2 L-6,3 L-14,3 L-14,2 L-10,2 L-10,1 L0,1 Z " fill="#C8CBBF" transform="translate(211,979)"/>
<path d="M0,0 L1,0 L1,1 L2,1 L2,3 L3,3 L3,5 L4,5 L4,7 L5,7 L5,9 L6,9 L6,11 L7,11 L7,13 L6,13 L6,12 L4,12 L4,10 L3,10 L3,9 L2,9 L2,5 L1,5 L1,7 L0,7 Z " fill="#D3D4C8" transform="translate(641,718)"/>
<path d="M0,0 L1,0 L1,2 L2,2 L2,3 L6,3 L6,4 L5,4 L5,5 L4,5 L4,6 L6,6 L6,7 L2,7 L2,6 L-2,6 L-2,5 L1,5 L1,3 L-2,3 L-2,2 L-6,2 L-6,1 L0,1 Z " fill="#F7F1EA" transform="translate(533,270)"/>
<path d="M0,0 L1,0 L1,1 L2,1 L2,2 L3,2 L3,3 L4,3 L4,4 L5,4 L5,5 L6,5 L6,6 L8,6 L8,7 L9,7 L9,8 L11,8 L11,9 L7,9 L7,10 L6,10 L6,7 L3,7 L3,6 L2,6 L2,5 L1,5 L1,2 L0,2 Z " fill="#58684E" transform="translate(610,965)"/>
<path d="M0,0 L1,0 L1,1 L2,1 L2,2 L3,2 L3,3 L4,3 L4,4 L5,4 L5,5 L6,5 L6,6 L5,6 L5,7 L6,7 L6,8 L3,8 L3,7 L2,7 L2,6 L1,6 L1,5 L0,5 L0,4 L-1,4 L-1,2 L-2,2 L-2,1 L0,1 Z " fill="#F5F1EA" transform="translate(733,959)"/>
<path d="M0,0 L1,0 L1,1 L2,1 L2,2 L3,2 L3,3 L4,3 L4,4 L5,4 L5,5 L6,5 L6,6 L7,6 L7,7 L9,7 L9,8 L10,8 L10,10 L7,10 L7,9 L6,9 L6,8 L4,8 L4,7 L3,7 L3,5 L2,5 L2,4 L1,4 L1,2 L0,2 Z " fill="#5D6D53" transform="translate(482,681)"/>
<path d="M0,0 L1,0 L1,2 L0,2 L0,4 L1,4 L1,5 L0,5 L0,6 L-1,6 L-1,8 L-2,8 L-2,9 L-3,9 L-3,10 L-4,10 L-4,11 L-5,11 L-5,9 L-4,9 L-4,8 L-6,8 L-6,7 L-5,7 L-5,6 L-4,6 L-4,5 L-3,5 L-3,3 L-2,3 L-2,2 L-1,2 L-1,1 L0,1 Z " fill="#64725B" transform="translate(714,563)"/>
<path d="M0,0 L1,0 L1,8 L2,8 L2,11 L1,11 L1,14 L0,14 L0,13 L-1,13 L-1,16 L-2,16 L-2,12 L-1,12 L-1,4 L0,4 Z " fill="#6D7B65" transform="translate(756,459)"/>
<path d="M0,0 L2,0 L2,1 L5,1 L5,2 L8,2 L8,3 L10,3 L10,4 L13,4 L13,5 L10,5 L10,6 L9,6 L9,4 L5,4 L5,5 L1,5 L1,4 L2,4 L2,3 L1,3 L1,1 L0,1 Z " fill="#617157" transform="translate(537,277)"/>
<path d="M0,0 L2,0 L2,1 L3,1 L3,2 L6,2 L6,3 L10,3 L10,4 L11,4 L11,5 L7,5 L7,4 L2,4 L2,3 L-2,3 L-2,2 L-5,2 L-5,1 L0,1 Z " fill="#7E8975" transform="translate(585,241)"/>
<path d="M0,0 L4,0 L4,1 L5,1 L5,2 L4,2 L4,4 L7,4 L7,5 L9,5 L9,6 L12,6 L12,7 L8,7 L8,6 L5,6 L5,5 L3,5 L3,4 L1,4 L1,3 L-1,3 L-1,2 L0,2 Z " fill="#6B7861" transform="translate(757,972)"/>
<path d="M0,0 L2,0 L2,1 L1,1 L1,2 L0,2 L0,3 L-1,3 L-1,4 L1,4 L1,3 L3,3 L3,5 L2,5 L2,6 L1,6 L1,7 L-3,7 L-3,6 L-4,6 L-4,7 L-5,7 L-5,5 L-4,5 L-4,4 L-3,4 L-3,3 L-2,3 L-2,2 L-1,2 L-1,1 L0,1 Z " fill="#E2DFD4" transform="translate(788,920)"/>
<path d="M0,0 L1,0 L1,2 L2,2 L2,6 L3,6 L3,10 L4,10 L4,14 L3,14 L3,15 L2,15 L2,14 L1,14 L1,4 L0,4 Z " fill="#727E66" transform="translate(534,779)"/>
<path d="M0,0 L6,0 L6,2 L7,2 L7,3 L9,3 L9,4 L7,4 L7,5 L8,5 L8,6 L6,6 L6,5 L4,5 L4,4 L1,4 L1,3 L3,3 L3,2 L0,2 Z " fill="#ECE8DE" transform="translate(452,662)"/>
<path d="M0,0 L1,0 L1,2 L2,2 L2,3 L1,3 L1,4 L0,4 L0,5 L-1,5 L-1,6 L-2,6 L-2,7 L-4,7 L-4,8 L-5,8 L-5,7 L-7,7 L-7,6 L-6,6 L-6,5 L-5,5 L-5,4 L-4,4 L-4,3 L-3,3 L-3,2 L-1,2 L-1,1 L0,1 Z " fill="#627157" transform="translate(692,587)"/>
<path d="M0,0 L2,0 L2,1 L6,1 L6,2 L7,2 L7,4 L12,4 L12,5 L4,5 L4,4 L-4,4 L-4,3 L5,3 L5,2 L0,2 Z " fill="#D3D5CA" transform="translate(506,267)"/>
<path d="M0,0 L1,0 L1,2 L2,2 L2,4 L1,4 L1,6 L0,6 L0,7 L-1,7 L-1,6 L-3,6 L-3,5 L-5,5 L-5,6 L-7,6 L-7,5 L-6,5 L-6,4 L-4,4 L-4,3 L-3,3 L-3,2 L-1,2 L-1,1 L0,1 Z " fill="#627258" transform="translate(822,989)"/>
<path d="M0,0 L1,0 L1,2 L2,2 L2,3 L0,3 L0,8 L-1,8 L-1,9 L-2,9 L-2,10 L-4,10 L-4,9 L-6,9 L-6,8 L-5,8 L-5,7 L-4,7 L-4,6 L-3,6 L-3,5 L-2,5 L-2,3 L-1,3 L-1,2 L0,2 Z " fill="#DCDCD1" transform="translate(264,957)"/>
<path d="M0,0 L1,0 L1,1 L2,1 L2,5 L3,5 L3,8 L4,8 L4,12 L3,12 L3,11 L0,11 L0,8 L1,8 L1,4 L-1,4 L-1,3 L0,3 Z " fill="#DFDFD8" transform="translate(672,798)"/>
<path d="M0,0 L1,0 L1,1 L3,1 L3,2 L2,2 L2,4 L5,4 L5,7 L6,7 L6,10 L5,10 L5,9 L4,9 L4,12 L3,12 L3,8 L2,8 L2,6 L1,6 L1,2 L0,2 Z " fill="#606F56" transform="translate(664,769)"/>
<path d="M0,0 L1,0 L1,2 L0,2 L0,4 L1,4 L1,6 L0,6 L0,7 L-1,7 L-1,6 L-2,6 L-2,8 L-3,8 L-3,9 L-4,9 L-4,8 L-5,8 L-5,9 L-6,9 L-6,10 L-8,10 L-8,9 L-7,9 L-7,8 L-6,8 L-6,7 L-5,7 L-5,6 L-4,6 L-4,5 L-3,5 L-3,4 L-2,4 L-2,2 L-1,2 L-1,1 L0,1 Z M-1,4 L-1,5 L0,5 L0,4 Z " fill="#E3E2D7" transform="translate(594,576)"/>
<path d="M0,0 L3,0 L3,4 L2,4 L2,8 L1,8 L1,12 L0,12 L0,9 L-1,9 L-1,5 L0,5 Z " fill="#5A6A50" transform="translate(624,506)"/>
<path d="M0,0 L1,0 L1,5 L2,5 L2,9 L1,9 L1,16 L0,16 L0,14 L-1,14 L-1,6 L0,6 Z " fill="#ECEBE4" transform="translate(635,462)"/>
<path d="M0,0 L2,0 L2,1 L3,1 L3,0 L4,0 L4,2 L6,2 L6,3 L7,3 L7,5 L8,5 L8,8 L9,8 L9,9 L8,9 L8,10 L7,10 L7,8 L6,8 L6,7 L5,7 L5,5 L4,5 L4,4 L3,4 L3,3 L2,3 L2,2 L1,2 L1,1 L0,1 Z " fill="#58674F" transform="translate(715,312)"/>
<path d="M0,0 L1,0 L1,1 L3,1 L3,3 L4,3 L4,5 L3,5 L3,17 L2,17 L2,5 L1,5 L1,4 L0,4 L0,3 L-1,3 L-1,2 L0,2 Z " fill="#67755D" transform="translate(484,981)"/>
<path d="M0,0 L4,0 L4,2 L3,2 L3,4 L2,4 L2,5 L1,5 L1,7 L0,7 L0,9 L-1,9 L-1,6 L-2,6 L-2,4 L-1,4 L-1,2 L0,2 Z " fill="#58684F" transform="translate(938,906)"/>
<path d="M0,0 L6,0 L6,2 L7,2 L7,3 L8,3 L8,4 L9,4 L9,7 L8,7 L8,6 L7,6 L7,5 L5,5 L5,4 L4,4 L4,3 L2,3 L2,2 L1,2 L1,1 L0,1 Z " fill="#6E7B66" transform="translate(677,278)"/>
<path d="M0,0 L1,0 L1,3 L2,3 L2,6 L3,6 L3,9 L4,9 L4,12 L5,12 L5,16 L4,16 L4,13 L3,13 L3,11 L2,11 L2,12 L1,12 L1,4 L0,4 Z " fill="#D0D2C8" transform="translate(677,813)"/>
<path d="M0,0 L1,0 L1,3 L2,3 L2,4 L1,4 L1,6 L0,6 L0,7 L-1,7 L-1,8 L-2,8 L-2,7 L-3,7 L-3,8 L-4,8 L-4,10 L-6,10 L-6,9 L-5,9 L-5,7 L-4,7 L-4,6 L-3,6 L-3,4 L-2,4 L-2,3 L-1,3 L-1,2 L0,2 Z " fill="#E1E0D7" transform="translate(605,561)"/>
<path d="M0,0 L1,0 L1,4 L2,4 L2,7 L3,7 L3,9 L1,9 L1,12 L0,12 L0,8 L-1,8 L-1,2 L0,2 Z " fill="#56674C" transform="translate(690,844)"/>
<path d="M0,0 L2,0 L2,1 L3,1 L3,2 L5,2 L5,3 L6,3 L6,8 L7,8 L7,11 L6,11 L6,9 L5,9 L5,7 L4,7 L4,6 L3,6 L3,4 L2,4 L2,3 L1,3 L1,1 L0,1 Z " fill="#EEEDE7" transform="translate(506,708)"/>
<path d="M0,0 L1,0 L1,1 L2,1 L2,2 L3,2 L3,3 L4,3 L4,4 L5,4 L5,6 L4,6 L4,8 L3,8 L3,7 L0,7 Z " fill="#E8E5DB" transform="translate(620,689)"/>
<path d="M0,0 L2,0 L2,1 L5,1 L5,2 L4,2 L4,3 L2,3 L2,4 L0,4 L0,5 L-1,5 L-1,6 L-3,6 L-3,2 L-1,2 L-1,1 L0,1 Z " fill="#5E6E55" transform="translate(563,599)"/>
<path d="M0,0 L2,0 L2,1 L1,1 L1,2 L2,2 L2,4 L4,4 L4,5 L7,5 L7,6 L9,6 L9,7 L7,7 L7,8 L5,8 L5,7 L4,7 L4,6 L3,6 L3,5 L1,5 L1,4 L0,4 L0,3 L-1,3 L-1,2 L-2,2 L-2,1 L0,1 Z " fill="#6F7A64" transform="translate(738,960)"/>
<path d="M0,0 L1,0 L1,2 L0,2 L0,3 L-1,3 L-1,4 L2,4 L2,5 L1,5 L1,6 L-1,6 L-1,8 L-2,8 L-2,7 L-3,7 L-3,8 L-4,8 L-4,9 L-5,9 L-5,7 L-4,7 L-4,6 L-3,6 L-3,4 L-2,4 L-2,2 L-1,2 L-1,1 L0,1 Z M3,2 L4,2 L4,3 L3,3 Z M2,3 L3,3 L3,4 L2,4 Z " fill="#DCDDD4" transform="translate(944,904)"/>
<path d="M0,0 L2,0 L2,1 L3,1 L3,2 L2,2 L2,3 L1,3 L1,4 L0,4 L0,5 L-1,5 L-1,6 L-2,6 L-2,7 L-3,7 L-3,8 L-4,8 L-4,9 L-5,9 L-5,6 L-3,6 L-3,5 L-4,5 L-4,4 L-2,4 L-2,2 L0,2 Z " fill="#64745B" transform="translate(953,890)"/>
<path d="M0,0 L2,0 L2,1 L5,1 L5,2 L6,2 L6,3 L7,3 L7,4 L8,4 L8,5 L10,5 L10,6 L6,6 L6,5 L5,5 L5,4 L2,4 L2,3 L4,3 L4,2 L0,2 L0,3 L-1,3 L-1,1 L0,1 Z M-2,3 L-1,3 L-1,4 L-2,4 Z " fill="#DCDDD5" transform="translate(1019,881)"/>
<path d="M0,0 L2,0 L2,1 L3,1 L3,0 L7,0 L7,1 L9,1 L9,3 L7,3 L7,4 L8,4 L8,5 L6,5 L6,4 L5,4 L5,3 L3,3 L3,2 L1,2 L1,1 L0,1 Z " fill="#617058" transform="translate(669,273)"/>
<path d="M0,0 L1,0 L1,4 L0,4 L0,14 L-3,14 L-3,11 L-2,11 L-2,9 L-1,9 L-1,3 L0,3 Z " fill="#74806A" transform="translate(1059,951)"/>
<path d="M0,0 L1,0 L1,1 L4,1 L4,3 L5,3 L5,5 L6,5 L6,7 L4,7 L4,8 L3,8 L3,7 L2,7 L2,3 L1,3 L1,2 L0,2 Z " fill="#5F6E56" transform="translate(712,922)"/>
<path d="M0,0 L2,0 L2,3 L4,3 L4,8 L3,8 L3,10 L2,10 L2,7 L1,7 L1,4 L0,4 Z " fill="#5F6E55" transform="translate(705,901)"/>
<path d="M0,0 L3,0 L3,1 L4,1 L4,5 L3,5 L3,7 L2,7 L2,5 L1,5 L1,4 L0,4 L0,3 L-1,3 L-1,2 L-2,2 L-2,1 L0,1 Z " fill="#5B6A51" transform="translate(1045,896)"/>
<path d="M0,0 L1,0 L1,2 L2,2 L2,3 L5,3 L5,1 L7,1 L7,4 L6,4 L6,6 L7,6 L7,8 L6,8 L6,7 L5,7 L5,6 L4,6 L4,5 L3,5 L3,4 L1,4 L1,3 L0,3 L0,2 L-1,2 L-1,1 L0,1 Z " fill="#606E56" transform="translate(1035,888)"/>
<path d="M0,0 L1,0 L1,2 L0,2 L0,4 L1,4 L1,6 L0,6 L0,8 L-1,8 L-1,7 L-3,7 L-3,8 L-5,8 L-5,7 L-4,7 L-4,5 L-3,5 L-3,4 L-2,4 L-2,2 L-1,2 L-1,1 L0,1 Z " fill="#68755F" transform="translate(720,555)"/>
<path d="M0,0 L2,0 L2,2 L1,2 L1,4 L0,4 L0,6 L-1,6 L-1,7 L-2,7 L-2,9 L-3,9 L-3,10 L-4,10 L-4,6 L-3,6 L-3,4 L-2,4 L-2,3 L-1,3 L-1,2 L0,2 Z " fill="#ECECE6" transform="translate(730,535)"/>
<path d="M0,0 L1,0 L1,1 L2,1 L2,2 L3,2 L3,3 L4,3 L4,5 L5,5 L5,6 L6,6 L6,8 L5,8 L5,7 L4,7 L4,6 L3,6 L3,7 L2,7 L2,5 L0,5 L0,4 L-1,4 L-1,2 L0,2 Z " fill="#D9DAD2" transform="translate(716,314)"/>
<path d="M0,0 L1,0 L1,1 L2,1 L2,4 L3,4 L3,6 L4,6 L4,9 L5,9 L5,13 L4,13 L4,10 L3,10 L3,8 L2,8 L2,6 L0,6 Z " fill="#7B8671" transform="translate(263,292)"/>
<path d="M0,0 L1,0 L1,1 L2,1 L2,2 L3,2 L3,0 L4,0 L4,1 L5,1 L5,2 L6,2 L6,3 L7,3 L7,4 L8,4 L8,5 L9,5 L9,6 L10,6 L10,7 L9,7 L9,8 L8,8 L8,7 L7,7 L7,6 L6,6 L6,4 L5,4 L5,3 L3,3 L3,4 L2,4 L2,3 L1,3 L1,2 L0,2 Z " fill="#E5E4DA" transform="translate(693,293)"/>
<path d="M0,0 L2,0 L2,1 L4,1 L4,2 L6,2 L6,3 L8,3 L8,4 L6,4 L6,5 L2,5 L2,4 L1,4 L1,2 L0,2 Z " fill="#56674C" transform="translate(647,990)"/>
<path d="M0,0 L1,0 L1,1 L2,1 L2,2 L1,2 L1,3 L2,3 L2,4 L6,4 L6,5 L4,5 L4,6 L3,6 L3,5 L1,5 L1,4 L0,4 L0,3 L-4,3 L-4,2 L-7,2 L-7,1 L-3,1 L-3,2 L-2,2 L-2,1 L0,1 Z " fill="#68765F" transform="translate(824,914)"/>
<path d="M0,0 L1,0 L1,1 L2,1 L2,2 L3,2 L3,4 L4,4 L4,5 L5,5 L5,7 L6,7 L6,9 L5,9 L5,8 L4,8 L4,9 L3,9 L3,7 L4,7 L4,6 L2,6 L2,7 L1,7 L1,6 L0,6 L0,5 L1,5 L1,2 L0,2 Z " fill="#6F7D65" transform="translate(501,702)"/>
<path d="M0,0 L1,0 L1,2 L2,2 L2,1 L3,1 L3,4 L4,4 L4,5 L5,5 L5,9 L4,9 L4,7 L2,7 L2,8 L1,8 L1,3 L0,3 Z " fill="#5F6E54" transform="translate(622,368)"/>
<path d="M0,0 L2,0 L2,1 L4,1 L4,3 L5,3 L5,4 L4,4 L4,5 L5,5 L5,7 L4,7 L4,6 L3,6 L3,5 L2,5 L2,4 L1,4 L1,3 L-1,3 L-1,2 L-2,2 L-2,1 L0,1 Z " fill="#606F57" transform="translate(689,284)"/>
<path d="M0,0 L1,0 L1,2 L2,2 L2,1 L3,1 L3,3 L2,3 L2,4 L0,4 L0,5 L-1,5 L-1,6 L-2,6 L-2,4 L-6,4 L-6,3 L-3,3 L-3,2 L-1,2 L-1,1 L0,1 Z " fill="#E2E2D9" transform="translate(799,976)"/>
<path d="M0,0 L6,0 L6,1 L7,1 L7,2 L8,2 L8,3 L6,3 L6,4 L7,4 L7,5 L5,5 L5,4 L4,4 L4,3 L3,3 L3,2 L1,2 L1,1 L0,1 Z " fill="#E3E2D8" transform="translate(618,971)"/>
<path d="M0,0 L1,0 L1,3 L2,3 L2,5 L3,5 L3,6 L4,6 L4,10 L2,10 L2,9 L1,9 L1,6 L0,6 Z " fill="#E2E2DB" transform="translate(710,919)"/>
<path d="M0,0 L3,0 L3,1 L4,1 L4,4 L3,4 L3,11 L2,11 L2,5 L1,5 L1,2 L0,2 Z " fill="#66745B" transform="translate(1057,921)"/>
<path d="M0,0 L4,0 L4,1 L5,1 L5,2 L6,2 L6,3 L5,3 L5,4 L6,4 L6,5 L4,5 L4,4 L2,4 L2,3 L0,3 L0,2 L-1,2 L-1,1 L0,1 Z " fill="#6D7C64" transform="translate(1027,883)"/>
<path d="M0,0 L5,0 L5,1 L6,1 L6,2 L7,2 L7,3 L6,3 L6,6 L5,6 L5,5 L4,5 L4,4 L3,4 L3,3 L2,3 L2,2 L1,2 L1,1 L0,1 Z " fill="#67755E" transform="translate(606,674)"/>
<path d="M0,0 L1,0 L1,2 L0,2 L0,3 L1,3 L1,5 L0,5 L0,6 L-1,6 L-1,4 L-2,4 L-2,6 L-3,6 L-3,7 L-4,7 L-4,8 L-5,8 L-5,9 L-7,9 L-7,8 L-6,8 L-6,7 L-5,7 L-5,6 L-4,6 L-4,5 L-3,5 L-3,3 L-2,3 L-2,2 L-1,2 L-1,1 L0,1 Z " fill="#6E7C65" transform="translate(707,571)"/>
<path d="M0,0 L2,0 L2,2 L1,2 L1,6 L-1,6 L-1,8 L-2,8 L-2,10 L-3,10 L-3,5 L-2,5 L-2,4 L-1,4 L-1,2 L0,2 Z " fill="#E7E7E0" transform="translate(737,521)"/>
<path d="M0,0 L1,0 L1,9 L0,9 L0,11 L-2,11 L-2,12 L-3,12 L-3,10 L-2,10 L-2,8 L-1,8 L-1,4 L0,4 Z " fill="#6E7B66" transform="translate(749,493)"/>
<path d="M0,0 L3,0 L3,1 L5,1 L5,3 L4,3 L4,4 L6,4 L6,5 L2,5 L2,4 L1,4 L1,3 L-2,3 L-2,2 L2,2 L2,1 L0,1 Z " fill="#E2E1D6" transform="translate(661,992)"/>
<path d="M0,0 L5,0 L5,2 L1,2 L1,3 L-8,3 L-8,2 L-1,2 L-1,1 L0,1 Z " fill="#707B64" transform="translate(196,979)"/>
<path d="M0,0 L1,0 L1,2 L2,2 L2,3 L0,3 L0,4 L-1,4 L-1,7 L-2,7 L-2,11 L-5,11 L-5,9 L-4,9 L-4,8 L-3,8 L-3,6 L-2,6 L-2,3 L-1,3 L-1,2 L0,2 Z " fill="#7E8A75" transform="translate(837,968)"/>
<path d="M0,0 L3,0 L3,1 L2,1 L2,5 L1,5 L1,8 L0,8 L0,5 L-1,5 L-1,7 L-2,7 L-2,3 L0,3 Z " fill="#EDECE4" transform="translate(270,944)"/>
<path d="M0,0 L1,0 L1,2 L2,2 L2,3 L1,3 L1,11 L0,11 L0,8 L-1,8 L-1,4 L-2,4 L-2,2 L0,2 Z " fill="#5F6E56" transform="translate(711,911)"/>
<path d="M0,0 L2,0 L2,3 L1,3 L1,8 L0,8 L0,6 L-1,6 L-1,4 L-2,4 L-2,2 L-3,2 L-3,1 L0,1 Z " fill="#697760" transform="translate(1052,904)"/>
<path d="M0,0 L1,0 L1,3 L2,3 L2,7 L1,7 L1,6 L0,6 L0,7 L-1,7 L-1,5 L-2,5 L-2,1 L0,1 Z " fill="#57674C" transform="translate(700,878)"/>
<path d="M0,0 L1,0 L1,4 L0,4 L0,8 L-1,8 L-1,9 L-2,9 L-2,10 L-4,10 L-4,8 L-3,8 L-3,6 L-2,6 L-2,5 L-1,5 L-1,2 L0,2 Z " fill="#DFE0D5" transform="translate(618,536)"/>
<path d="M0,0 L1,0 L1,2 L2,2 L2,4 L1,4 L1,3 L0,3 L0,8 L1,8 L1,11 L-1,11 L-1,12 L-2,12 L-2,9 L-1,9 L-1,2 L0,2 Z " fill="#EFEDE5" transform="translate(620,531)"/>
<path d="M0,0 L2,0 L2,5 L1,5 L1,7 L0,7 L0,9 L-1,9 L-1,10 L-2,10 L-2,6 L-1,6 L-1,5 L0,5 Z " fill="#65735C" transform="translate(752,483)"/>
<path d="M0,0 L4,0 L4,1 L7,1 L7,0 L8,0 L8,1 L9,1 L9,3 L11,3 L11,4 L7,4 L7,3 L5,3 L5,2 L3,2 L3,1 L0,1 Z " fill="#D6D8CC" transform="translate(971,1001)"/>
<path d="M0,0 L2,0 L2,2 L1,2 L1,3 L-1,3 L-1,4 L-2,4 L-2,5 L-6,5 L-6,4 L-5,4 L-5,3 L-4,3 L-4,2 L-2,2 L-2,1 L0,1 Z " fill="#697760" transform="translate(1030,996)"/>
<path d="M0,0 L1,0 L1,2 L2,2 L2,4 L1,4 L1,5 L0,5 L0,6 L-1,6 L-1,7 L-2,7 L-2,5 L-3,5 L-3,3 L-2,3 L-2,2 L-1,2 L-1,1 L0,1 Z " fill="#ECEAE0" transform="translate(1044,979)"/>
<path d="M0,0 L1,0 L1,2 L2,2 L2,5 L0,5 L0,7 L-1,7 L-1,6 L-3,6 L-3,4 L-2,4 L-2,2 L0,2 Z " fill="#67755F" transform="translate(1053,971)"/>
<path d="M0,0 L1,0 L1,1 L2,1 L2,3 L5,3 L5,7 L4,7 L4,8 L3,8 L3,7 L2,7 L2,5 L1,5 L1,2 L0,2 Z " fill="#E0DFD6" transform="translate(934,959)"/>
<path d="M0,0 L4,0 L4,1 L5,1 L5,0 L7,0 L7,2 L5,2 L5,3 L7,3 L7,5 L5,5 L5,4 L3,4 L3,2 L2,2 L2,1 L0,1 Z " fill="#637159" transform="translate(569,650)"/>
<path d="M0,0 L2,0 L2,1 L1,1 L1,2 L2,2 L2,3 L1,3 L1,4 L0,4 L0,5 L-2,5 L-2,6 L-3,6 L-3,5 L-5,5 L-5,4 L-4,4 L-4,3 L-2,3 L-2,2 L-1,2 L-1,1 L0,1 Z " fill="#DFDED3" transform="translate(573,596)"/>
<path d="M0,0 L1,0 L1,1 L2,1 L2,2 L3,2 L3,3 L4,3 L4,4 L5,4 L5,5 L3,5 L3,6 L4,6 L4,7 L2,7 L2,6 L1,6 L1,5 L0,5 L0,3 L1,3 L1,2 L0,2 Z " fill="#606F56" transform="translate(595,950)"/>
<path d="M0,0 L4,0 L4,1 L5,1 L5,6 L4,6 L4,5 L3,5 L3,4 L2,4 L2,3 L1,3 L1,1 L0,1 Z " fill="#64735A" transform="translate(831,922)"/>
<path d="M0,0 L1,0 L1,1 L3,1 L3,0 L4,0 L4,2 L5,2 L5,6 L3,6 L3,5 L2,5 L2,3 L1,3 L1,2 L0,2 Z " fill="#58674E" transform="translate(656,748)"/>
<path d="M0,0 L1,0 L1,1 L2,1 L2,5 L3,5 L3,9 L2,9 L2,7 L1,7 L1,5 L0,5 L0,4 L-1,4 L-1,3 L-2,3 L-2,2 L0,2 Z " fill="#606F55" transform="translate(634,701)"/>
<path d="M0,0 L2,0 L2,1 L6,1 L6,2 L4,2 L4,3 L3,3 L3,4 L2,4 L2,5 L1,5 L1,6 L0,6 Z " fill="#5B6A51" transform="translate(576,588)"/>
<path d="M0,0 L1,0 L1,1 L2,1 L2,2 L3,2 L3,3 L4,3 L4,4 L5,4 L5,5 L6,5 L6,6 L3,6 L3,5 L0,5 Z " fill="#EAEAE4" transform="translate(703,300)"/>
<path d="M0,0 L1,0 L1,1 L3,1 L3,2 L4,2 L4,3 L6,3 L6,4 L4,4 L4,6 L3,6 L3,5 L1,5 L1,4 L0,4 Z " fill="#5E6D53" transform="translate(569,292)"/>
<path d="M0,0 L1,0 L1,2 L3,2 L3,1 L5,1 L5,3 L4,3 L4,5 L2,5 L2,4 L1,4 L1,3 L-1,3 L-1,2 L-3,2 L-3,1 L0,1 Z " fill="#D1D3C9" transform="translate(562,285)"/>
<path d="M0,0 L14,0 L14,1 L13,1 L13,2 L12,2 L12,3 L11,3 L11,2 L10,2 L10,1 L0,1 Z " fill="#5F6D55" transform="translate(448,270)"/>
<path d="M0,0 L2,0 L2,1 L3,1 L3,2 L5,2 L5,1 L6,1 L6,2 L7,2 L7,1 L8,1 L8,3 L7,3 L7,4 L8,4 L8,5 L6,5 L6,4 L4,4 L4,3 L2,3 L2,2 L1,2 L1,1 L0,1 Z " fill="#6D7862" transform="translate(745,968)"/>
<path d="M0,0 L2,0 L2,1 L3,1 L3,0 L6,0 L6,1 L5,1 L5,6 L4,6 L4,5 L3,5 L3,3 L2,3 L2,2 L1,2 L1,1 L0,1 Z " fill="#66745D" transform="translate(406,960)"/>
<path d="M0,0 L3,0 L3,3 L4,3 L4,5 L3,5 L3,7 L2,7 L2,5 L1,5 L1,3 L0,3 Z " fill="#EFEDE8" transform="translate(781,949)"/>
<path d="M0,0 L3,0 L3,3 L4,3 L4,7 L3,7 L3,5 L2,5 L2,6 L1,6 L1,2 L0,2 Z " fill="#F2EFE8" transform="translate(535,779)"/>
<path d="M0,0 L2,0 L2,1 L3,1 L3,2 L5,2 L5,3 L7,3 L7,4 L4,4 L4,5 L3,5 L3,6 L2,6 L2,3 L1,3 L1,2 L0,2 Z " fill="#ECEAE1" transform="translate(577,656)"/>
<path d="M0,0 L4,0 L4,1 L6,1 L6,2 L4,2 L4,3 L2,3 L2,4 L1,4 L1,2 L-3,2 L-3,1 L0,1 Z " fill="#6A7961" transform="translate(620,631)"/>
<path d="M0,0 L1,0 L1,4 L0,4 L0,5 L1,5 L1,8 L-1,8 L-1,10 L-2,10 L-2,6 L-1,6 L-1,2 L0,2 Z " fill="#D6D7CC" transform="translate(624,518)"/>
<path d="M0,0 L1,0 L1,2 L3,2 L3,4 L4,4 L4,6 L2,6 L2,4 L1,4 L1,6 L0,6 L0,4 L-1,4 L-1,1 L0,1 Z " fill="#707C65" transform="translate(616,348)"/>
<path d="M0,0 L2,0 L2,1 L3,1 L3,2 L5,2 L5,3 L3,3 L3,5 L5,5 L5,6 L4,6 L4,9 L3,9 L3,7 L2,7 L2,3 L1,3 L1,1 L0,1 Z " fill="#616F57" transform="translate(739,349)"/>
<path d="M0,0 L1,0 L1,2 L2,2 L2,5 L3,5 L3,7 L4,7 L4,9 L1,9 L1,4 L0,4 Z " fill="#6C7962" transform="translate(612,338)"/>
<path d="M0,0 L2,0 L2,1 L3,1 L3,2 L5,2 L5,3 L7,3 L7,4 L6,4 L6,5 L4,5 L4,4 L2,4 L2,3 L0,3 Z " fill="#56674C" transform="translate(561,288)"/>
<path d="M0,0 L4,0 L4,1 L5,1 L5,2 L9,2 L9,3 L1,3 L1,2 L0,2 Z " fill="#E2E2DA" transform="translate(624,254)"/>
<path d="M0,0 L4,0 L4,1 L7,1 L7,2 L4,2 L4,3 L0,3 L0,2 L-1,2 L-1,1 L0,1 Z " fill="#606F55" transform="translate(655,994)"/>
<path d="M0,0 L1,0 L1,1 L2,1 L2,2 L3,2 L3,3 L4,3 L4,4 L1,4 L1,6 L-1,6 L-1,2 L0,2 Z " fill="#647359" transform="translate(945,982)"/>
<path d="M0,0 L2,0 L2,1 L3,1 L3,3 L4,3 L4,8 L3,8 L3,6 L2,6 L2,4 L1,4 L1,2 L0,2 Z " fill="#5A6951" transform="translate(716,930)"/>
<path d="M0,0 L1,0 L1,1 L2,1 L2,2 L3,2 L3,3 L4,3 L4,4 L5,4 L5,6 L4,6 L4,7 L3,7 L3,6 L2,6 L2,3 L1,3 L1,4 L0,4 Z " fill="#DDDDD4" transform="translate(1042,897)"/>
<path d="M0,0 L1,0 L1,1 L2,1 L2,2 L3,2 L3,3 L4,3 L4,4 L5,4 L5,5 L6,5 L6,6 L4,6 L4,5 L3,5 L3,7 L2,7 L2,4 L1,4 L1,3 L0,3 Z " fill="#6A7860" transform="translate(492,691)"/>
<path d="M0,0 L2,0 L2,1 L5,1 L5,2 L4,2 L4,3 L3,3 L3,5 L2,5 L2,4 L0,4 L0,3 L-1,3 L-1,2 L0,2 Z " fill="#58694D" transform="translate(460,669)"/>
<path d="M0,0 L1,0 L1,1 L2,1 L2,2 L3,2 L3,3 L2,3 L2,4 L3,4 L3,5 L1,5 L1,4 L-1,4 L-1,3 L-3,3 L-3,2 L-4,2 L-4,1 L-2,1 L-2,2 L0,2 Z " fill="#73806A" transform="translate(588,658)"/>
<path d="M0,0 L9,0 L9,3 L5,3 L5,2 L6,2 L6,1 L0,1 Z " fill="#ECEBE2" transform="translate(461,631)"/>
<path d="M0,0 L2,0 L2,1 L3,1 L3,2 L4,2 L4,3 L6,3 L6,4 L8,4 L8,5 L3,5 L3,4 L2,4 L2,3 L1,3 L1,1 L0,1 Z " fill="#E2E3DC" transform="translate(659,268)"/>
<path d="M0,0 L4,0 L4,1 L10,1 L10,2 L4,2 L4,3 L3,3 L3,4 L1,4 L1,3 L2,3 L2,1 L0,1 Z " fill="#6D7B62" transform="translate(199,266)"/>
<path d="M0,0 L4,0 L4,1 L10,1 L10,2 L2,2 L2,3 L1,3 L1,2 L-1,2 L-1,1 L0,1 Z " fill="#68765C" transform="translate(188,264)"/>
<path d="M0,0 L1,0 L1,5 L0,5 L0,6 L-4,6 L-4,5 L-3,5 L-3,4 L-2,4 L-2,3 L-1,3 L-1,2 L0,2 Z " fill="#74826A" transform="translate(485,998)"/>
<path d="M0,0 L1,0 L1,2 L2,2 L2,5 L1,5 L1,7 L0,7 L0,6 L-1,6 L-1,2 L0,2 Z M2,1 L3,1 L3,2 L2,2 Z " fill="#6A7760" transform="translate(1055,965)"/>
<path d="M0,0 L2,0 L2,1 L3,1 L3,2 L4,2 L4,3 L5,3 L5,4 L3,4 L3,3 L2,3 L2,5 L1,5 L1,4 L0,4 L0,3 L-1,3 L-1,2 L0,2 Z " fill="#69775E" transform="translate(603,959)"/>
<path d="M0,0 L1,0 L1,2 L2,2 L2,4 L3,4 L3,5 L4,5 L4,7 L2,7 L2,8 L1,8 L1,4 L0,4 Z " fill="#CFD2C8" transform="translate(717,934)"/>
<path d="M0,0 L3,0 L3,2 L4,2 L4,4 L5,4 L5,6 L4,6 L4,5 L2,5 L2,3 L1,3 L1,2 L0,2 Z " fill="#DCDDD5" transform="translate(643,725)"/>
<path d="M0,0 L7,0 L7,1 L8,1 L8,2 L7,2 L7,3 L5,3 L5,2 L2,2 L2,1 L0,1 Z " fill="#D8DAD0" transform="translate(460,668)"/>
<path d="M0,0 L1,0 L1,2 L2,2 L2,3 L1,3 L1,4 L-2,4 L-2,5 L-3,5 L-3,6 L-5,6 L-5,5 L-4,5 L-4,4 L-3,4 L-3,3 L-2,3 L-2,2 L-1,2 L-1,1 L0,1 Z " fill="#67755D" transform="translate(699,580)"/>
<path d="M0,0 L2,0 L2,1 L5,1 L5,2 L8,2 L8,3 L3,3 L3,4 L2,4 L2,3 L1,3 L1,1 L0,1 Z M1,4 L2,4 L2,5 L1,5 Z " fill="#6F7D66" transform="translate(537,277)"/>
<path d="M0,0 L2,0 L2,1 L5,1 L5,2 L7,2 L7,3 L5,3 L5,4 L3,4 L3,3 L1,3 L1,1 L0,1 Z " fill="#6D7A62" transform="translate(969,1001)"/>
<path d="M0,0 L6,0 L6,1 L4,1 L4,2 L6,2 L6,3 L2,3 L2,2 L0,2 Z " fill="#55664B" transform="translate(676,1002)"/>
<path d="M0,0 L2,0 L2,1 L5,1 L5,2 L8,2 L8,3 L4,3 L4,4 L3,4 L3,3 L1,3 L1,1 L0,1 Z " fill="#68765F" transform="translate(665,997)"/>
<path d="M0,0 L1,0 L1,2 L0,2 L0,4 L-1,4 L-1,6 L-5,6 L-5,5 L-3,5 L-3,3 L-2,3 L-2,2 L-1,2 L-1,1 L0,1 Z " fill="#78856F" transform="translate(828,983)"/>
<path d="M0,0 L2,0 L2,2 L3,2 L3,3 L2,3 L2,5 L1,5 L1,6 L0,6 L0,4 L-1,4 L-1,2 L0,2 Z " fill="#ECE9E0" transform="translate(829,976)"/>
<path d="M0,0 L4,0 L4,1 L6,1 L6,2 L5,2 L5,3 L6,3 L6,4 L4,4 L4,3 L2,3 L2,2 L1,2 L1,1 L0,1 Z " fill="#D9DAD1" transform="translate(625,976)"/>
<path d="M0,0 L2,0 L2,2 L4,2 L4,3 L2,3 L2,4 L3,4 L3,5 L4,5 L4,6 L2,6 L2,5 L1,5 L1,4 L0,4 Z " fill="#6C7962" transform="translate(413,964)"/>
<path d="M0,0 L2,0 L2,1 L1,1 L1,3 L2,3 L2,7 L1,7 L1,5 L0,5 L0,4 L-1,4 L-1,2 L-2,2 L-2,1 L0,1 Z " fill="#64715A" transform="translate(725,943)"/>
<path d="M0,0 L1,0 L1,3 L2,3 L2,6 L3,6 L3,8 L2,8 L2,7 L0,7 L0,5 L-1,5 L-1,4 L0,4 Z " fill="#DFE1D7" transform="translate(705,905)"/>
<path d="M0,0 L4,0 L4,1 L2,1 L2,2 L1,2 L1,3 L-5,3 L-5,2 L-2,2 L-2,1 L0,1 Z " fill="#D2D4C8" transform="translate(975,880)"/>
<path d="M0,0 L1,0 L1,3 L3,3 L3,7 L2,7 L2,5 L0,5 L0,6 L-1,6 L-1,3 L0,3 Z " fill="#E4E4DE" transform="translate(680,826)"/>
<path d="M0,0 L2,0 L2,2 L3,2 L3,1 L4,1 L4,4 L5,4 L5,5 L4,5 L4,7 L3,7 L3,5 L2,5 L2,3 L1,3 L1,1 L0,1 Z " fill="#5E6C53" transform="translate(646,726)"/>
<path d="M0,0 L2,0 L2,1 L1,1 L1,3 L-1,3 L-1,4 L-5,4 L-5,3 L-4,3 L-4,2 L-2,2 L-2,1 L0,1 Z " fill="#728169" transform="translate(636,624)"/>
<path d="M0,0 L3,0 L3,2 L1,2 L1,3 L0,3 L0,5 L-1,5 L-1,4 L-3,4 L-3,3 L-2,3 L-2,2 L-1,2 L-1,1 L0,1 Z " fill="#EDECE4" transform="translate(585,586)"/>
<path d="M0,0 L1,0 L1,2 L2,2 L2,3 L1,3 L1,4 L0,4 L0,6 L-1,6 L-1,7 L-2,7 L-2,3 L-1,3 L-1,1 L0,1 Z " fill="#5B6B52" transform="translate(600,564)"/>
<path d="M0,0 L4,0 L4,1 L3,1 L3,3 L2,3 L2,4 L1,4 L1,5 L0,5 L0,2 L-1,2 L-1,1 L0,1 Z " fill="#5F6F56" transform="translate(602,560)"/>
<path d="M0,0 L1,0 L1,1 L2,1 L2,3 L3,3 L3,4 L4,4 L4,6 L1,6 L1,4 L0,4 Z " fill="#76816A" transform="translate(608,332)"/>
<path d="M0,0 L2,0 L2,1 L4,1 L4,3 L6,3 L6,4 L4,4 L4,6 L3,6 L3,4 L2,4 L2,3 L1,3 L1,1 L0,1 Z " fill="#6B7960" transform="translate(555,284)"/>
<path d="M0,0 L2,0 L2,1 L5,1 L5,2 L6,2 L6,3 L8,3 L8,4 L6,4 L6,5 L5,5 L5,4 L4,4 L4,2 L2,2 L2,3 L1,3 L1,1 L0,1 Z " fill="#D9DBD0" transform="translate(639,259)"/>
<path d="M0,0 L2,0 L2,1 L4,1 L4,0 L6,0 L6,1 L5,1 L5,4 L3,4 L3,3 L2,3 L2,2 L1,2 L1,1 L0,1 Z " fill="#D2D4C6" transform="translate(956,992)"/>
<path d="M0,0 L1,0 L1,2 L2,2 L2,4 L1,4 L1,5 L0,5 L0,3 L-2,3 L-2,4 L-4,4 L-4,3 L-3,3 L-3,2 L-1,2 L-1,1 L0,1 Z " fill="#6F7E67" transform="translate(822,989)"/>
<path d="M0,0 L2,0 L2,1 L5,1 L5,2 L7,2 L7,3 L1,3 L1,2 L0,2 Z " fill="#D9DAD1" transform="translate(751,973)"/>
<path d="M0,0 L1,0 L1,2 L2,2 L2,4 L3,4 L3,5 L4,5 L4,6 L2,6 L2,5 L-1,5 L-1,3 L0,3 Z " fill="#748069" transform="translate(781,952)"/>
<path d="M0,0 L2,0 L2,1 L4,1 L4,4 L5,4 L5,6 L4,6 L4,5 L3,5 L3,4 L2,4 L2,3 L1,3 L1,1 L0,1 Z " fill="#D3D3C9" transform="translate(599,953)"/>
<path d="M0,0 L2,0 L2,4 L1,4 L1,7 L0,7 L0,5 L-1,5 L-1,3 L0,3 Z " fill="#57684E" transform="translate(933,920)"/>
<path d="M0,0 L4,0 L4,1 L5,1 L5,2 L4,2 L4,3 L5,3 L5,5 L4,5 L4,4 L3,4 L3,3 L2,3 L2,2 L1,2 L1,1 L0,1 Z " fill="#EDECE6" transform="translate(494,692)"/>
<path d="M0,0 L1,0 L1,3 L-1,3 L-1,4 L-5,4 L-5,3 L-4,3 L-4,2 L-2,2 L-2,1 L0,1 Z " fill="#E2E2DA" transform="translate(567,601)"/>
<path d="M0,0 L3,0 L3,2 L5,2 L5,3 L1,3 L1,2 L-3,2 L-3,1 L0,1 Z " fill="#DBDDD2" transform="translate(534,274)"/>
<path d="M0,0 L4,0 L4,1 L2,1 L2,2 L1,2 L1,3 L-1,3 L-1,4 L-2,4 L-2,1 L0,1 Z " fill="#E6E6DC" transform="translate(814,992)"/>
<path d="M0,0 L3,0 L3,1 L4,1 L4,3 L5,3 L5,4 L3,4 L3,3 L1,3 L1,2 L0,2 Z " fill="#E4E3DB" transform="translate(644,986)"/>
<path d="M0,0 L1,0 L1,1 L2,1 L2,2 L3,2 L3,3 L4,3 L4,4 L1,4 L1,3 L-1,3 L-1,2 L-2,2 L-2,1 L0,1 Z " fill="#ECE9E0" transform="translate(733,959)"/>
<path d="M0,0 L1,0 L1,3 L2,3 L2,5 L1,5 L1,6 L-1,6 L-1,2 L0,2 Z " fill="#EFEDE7" transform="translate(401,951)"/>
<path d="M0,0 L1,0 L1,1 L2,1 L2,3 L1,3 L1,5 L-1,5 L-1,6 L-2,6 L-2,4 L-1,4 L-1,2 L0,2 Z " fill="#DADCD4" transform="translate(267,951)"/>
<path d="M0,0 L1,0 L1,1 L2,1 L2,3 L3,3 L3,5 L2,5 L2,6 L0,6 L0,3 L1,3 L1,2 L0,2 Z " fill="#6E7B64" transform="translate(580,928)"/>
<path d="M0,0 L3,0 L3,1 L2,1 L2,3 L1,3 L1,4 L0,4 L0,6 L-1,6 L-1,2 L0,2 Z " fill="#5C6B52" transform="translate(781,924)"/>
<path d="M0,0 L1,0 L1,1 L4,1 L4,3 L5,3 L5,4 L3,4 L3,5 L2,5 L2,3 L1,3 L1,2 L0,2 Z " fill="#E4E3DB" transform="translate(572,911)"/>
<path d="M0,0 L1,0 L1,2 L2,2 L2,3 L1,3 L1,4 L0,4 L0,5 L-3,5 L-3,4 L-2,4 L-2,3 L-1,3 L-1,1 L0,1 Z " fill="#F7F3EB" transform="translate(946,903)"/>
<path d="M0,0 L1,0 L1,1 L3,1 L3,2 L4,2 L4,3 L5,3 L5,4 L6,4 L6,5 L5,5 L5,6 L4,6 L4,5 L3,5 L3,3 L2,3 L2,2 L0,2 Z " fill="#DFDED4" transform="translate(1035,891)"/>
<path d="M0,0 L1,0 L1,2 L2,2 L2,3 L0,3 L0,6 L-1,6 L-1,4 L-2,4 L-2,1 L0,1 Z " fill="#5B6951" transform="translate(640,709)"/>
<path d="M0,0 L1,0 L1,1 L3,1 L3,4 L4,4 L4,6 L3,6 L3,7 L2,7 L2,5 L1,5 L1,4 L2,4 L2,2 L0,2 Z " fill="#59694E" transform="translate(479,679)"/>
<path d="M0,0 L2,0 L2,1 L3,1 L3,2 L5,2 L5,3 L6,3 L6,4 L4,4 L4,3 L3,3 L3,4 L2,4 L2,3 L1,3 L1,2 L0,2 Z " fill="#E1E0D6" transform="translate(600,671)"/>
<path d="M0,0 L1,0 L1,1 L6,1 L6,2 L3,2 L3,3 L-1,3 L-1,1 L0,1 Z " fill="#DFE0D5" transform="translate(592,638)"/>
<path d="M0,0 L3,0 L3,1 L2,1 L2,2 L1,2 L1,3 L0,3 L0,4 L-1,4 L-1,5 L-2,5 L-2,2 L-1,2 L-1,1 L0,1 Z " fill="#627159" transform="translate(584,584)"/>
<path d="M0,0 L2,0 L2,1 L3,1 L3,2 L2,2 L2,4 L1,4 L1,5 L0,5 L0,3 L-1,3 L-1,1 L0,1 Z " fill="#ECECE6" transform="translate(714,558)"/>
<path d="M0,0 L1,0 L1,1 L2,1 L2,2 L3,2 L3,3 L5,3 L5,4 L0,4 L0,3 L-1,3 L-1,2 L0,2 Z " fill="#5D6D53" transform="translate(575,296)"/>
<path d="M0,0 L4,0 L4,1 L7,1 L7,2 L3,2 L3,3 L1,3 L1,1 L0,1 Z " fill="#69785F" transform="translate(514,272)"/>
<path d="M0,0 L2,0 L2,1 L4,1 L4,2 L6,2 L6,3 L1,3 L1,2 L0,2 Z " fill="#5F6F56" transform="translate(647,990)"/>
<path d="M0,0 L1,0 L1,1 L3,1 L3,2 L4,2 L4,3 L2,3 L2,4 L1,4 L1,3 L-2,3 L-2,2 L0,2 Z " fill="#58684E" transform="translate(631,981)"/>
<path d="M0,0 L1,0 L1,1 L3,1 L3,2 L4,2 L4,3 L5,3 L5,4 L2,4 L2,3 L0,3 Z " fill="#E7E6E0" transform="translate(742,967)"/>
<path d="M0,0 L1,0 L1,4 L2,4 L2,6 L1,6 L1,5 L0,5 L0,4 L-1,4 L-1,3 L-2,3 L-2,2 L-1,2 L-1,1 L0,1 Z " fill="#6D7862" transform="translate(734,955)"/>
<path d="M0,0 L2,0 L2,1 L1,1 L1,2 L2,2 L2,3 L1,3 L1,4 L-1,4 L-1,5 L-3,5 L-3,4 L-2,4 L-2,3 L-1,3 L-1,2 L0,2 Z " fill="#F0ECE2" transform="translate(790,919)"/>
<path d="M0,0 L3,0 L3,1 L2,1 L2,2 L1,2 L1,3 L0,3 L0,5 L-1,5 L-1,3 L-2,3 L-2,2 L-1,2 L-1,1 L0,1 Z " fill="#5B6C52" transform="translate(945,899)"/>
<path d="M0,0 L2,0 L2,2 L3,2 L3,4 L4,4 L4,5 L2,5 L2,4 L1,4 L1,3 L-1,3 L-1,2 L1,2 L1,1 L0,1 Z " fill="#DADACF" transform="translate(475,673)"/>
<path d="M0,0 L2,0 L2,1 L3,1 L3,2 L1,2 L1,3 L4,3 L4,4 L0,4 L0,2 L-1,2 L-1,1 L0,1 Z " fill="#E7E6DC" transform="translate(587,638)"/>
<path d="M0,0 L2,0 L2,1 L3,1 L3,2 L1,2 L1,3 L-1,3 L-1,4 L-2,4 L-2,3 L-3,3 L-3,2 L-1,2 L-1,1 L0,1 Z " fill="#EFEEE6" transform="translate(649,615)"/>
<path d="M0,0 L1,0 L1,2 L0,2 L0,5 L-3,5 L-3,3 L-2,3 L-2,2 L-1,2 L-1,1 L0,1 Z " fill="#C7C9BA" transform="translate(598,571)"/>
<path d="M0,0 L1,0 L1,2 L2,2 L2,0 L4,0 L4,3 L3,3 L3,4 L2,4 L2,3 L0,3 Z " fill="#5B6C51" transform="translate(745,507)"/>
<path d="M0,0 L1,0 L1,2 L2,2 L2,4 L1,4 L1,7 L0,7 L0,3 L-1,3 L-1,1 L0,1 Z " fill="#DFE1D9" transform="translate(744,503)"/>
<path d="M0,0 L2,0 L2,1 L4,1 L4,2 L6,2 L6,3 L1,3 L1,2 L0,2 Z " fill="#EBE9DF" transform="translate(647,263)"/>
<path d="M0,0 L1,0 L1,3 L3,3 L3,4 L-1,4 L-1,3 L-2,3 L-2,1 L0,1 Z " fill="#69765E" transform="translate(630,252)"/>
<path d="M0,0 L4,0 L4,2 L3,2 L3,4 L2,4 L2,3 L1,3 L1,1 L0,1 Z " fill="#DCDCD2" transform="translate(941,975)"/>
<path d="M0,0 L1,0 L1,1 L2,1 L2,2 L3,2 L3,3 L4,3 L4,4 L3,4 L3,5 L1,5 L1,2 L0,2 Z " fill="#607057" transform="translate(610,965)"/>
<path d="M0,0 L3,0 L3,1 L5,1 L5,2 L3,2 L3,3 L1,3 L1,2 L0,2 Z " fill="#627159" transform="translate(742,965)"/>
<path d="M0,0 L2,0 L2,2 L1,2 L1,6 L0,6 L0,3 L-1,3 L-1,1 L0,1 Z " fill="#E5E5DE" transform="translate(526,747)"/>
<path d="M0,0 L2,0 L2,2 L3,2 L3,4 L2,4 L2,5 L1,5 L1,3 L0,3 Z " fill="#56664B" transform="translate(516,731)"/>
<path d="M0,0 L3,0 L3,2 L2,2 L2,4 L1,4 L1,3 L0,3 L0,2 L-1,2 L-1,1 L0,1 Z " fill="#E4E3D9" transform="translate(501,699)"/>
<path d="M0,0 L1,0 L1,1 L3,1 L3,2 L4,2 L4,3 L5,3 L5,4 L4,4 L4,5 L3,5 L3,4 L2,4 L2,2 L0,2 Z " fill="#E6E6DC" transform="translate(591,664)"/>
<path d="M0,0 L2,0 L2,1 L4,1 L4,2 L2,2 L2,3 L-2,3 L-2,2 L0,2 Z " fill="#DDDFD7" transform="translate(573,643)"/>
<path d="M0,0 L1,0 L1,2 L2,2 L2,3 L3,3 L3,5 L0,5 Z " fill="#D0D2C7" transform="translate(732,337)"/>
<path d="M0,0 L1,0 L1,1 L3,1 L3,2 L4,2 L4,3 L-1,3 L-1,1 L0,1 Z " fill="#68765E" transform="translate(249,279)"/>
<path d="M0,0 L2,0 L2,1 L3,1 L3,2 L2,2 L2,3 L3,3 L3,5 L2,5 L2,4 L1,4 L1,2 L0,2 Z " fill="#E6E7DF" transform="translate(583,931)"/>
<path d="M0,0 L1,0 L1,1 L3,1 L3,2 L1,2 L1,3 L0,3 L0,4 L-1,4 L-1,2 L-2,2 L-2,1 L0,1 Z " fill="#596A50" transform="translate(963,883)"/>
<path d="M0,0 L2,0 L2,1 L4,1 L4,3 L3,3 L3,2 L2,2 L2,4 L1,4 L1,2 L0,2 Z " fill="#5A6A51" transform="translate(650,733)"/>
<path d="M0,0 L1,0 L1,4 L0,4 L0,5 L-1,5 L-1,4 L-2,4 L-2,3 L-1,3 L-1,1 L0,1 Z " fill="#EEECE3" transform="translate(576,594)"/>
<path d="M0,0 L1,0 L1,1 L2,1 L2,3 L1,3 L1,6 L0,6 L0,2 L-1,2 L-1,1 L0,1 Z " fill="#DDE0D7" transform="translate(742,509)"/>
<path d="M0,0 L2,0 L2,1 L3,1 L3,2 L4,2 L4,3 L3,3 L3,5 L2,5 L2,3 L1,3 L1,1 L0,1 Z " fill="#5B6951" transform="translate(731,334)"/>
<path d="M0,0 L2,0 L2,1 L3,1 L3,2 L4,2 L4,3 L3,3 L3,4 L2,4 L2,3 L1,3 L1,2 L0,2 Z " fill="#ECEBE5" transform="translate(699,297)"/>
<path d="M0,0 L2,0 L2,2 L1,2 L1,3 L0,3 L0,4 L-1,4 L-1,1 L0,1 Z " fill="#E8E8E1" transform="translate(1032,992)"/>
<path d="M0,0 L2,0 L2,2 L1,2 L1,3 L0,3 L0,4 L-1,4 L-1,1 L0,1 Z " fill="#E4E4DD" transform="translate(1036,989)"/>
<path d="M0,0 L3,0 L3,2 L2,2 L2,4 L1,4 L1,2 L0,2 Z " fill="#EBECE8" transform="translate(823,984)"/>
<path d="M0,0 L2,0 L2,2 L3,2 L3,3 L2,3 L2,4 L1,4 L1,3 L0,3 Z " fill="#E9E9E2" transform="translate(945,979)"/>
<path d="M0,0 L2,0 L2,3 L-1,3 L-1,1 L0,1 Z " fill="#6F7B65" transform="translate(833,976)"/>
<path d="M0,0 L1,0 L1,1 L2,1 L2,3 L0,3 L0,4 L-1,4 L-1,1 L0,1 Z " fill="#F2EEE6" transform="translate(945,976)"/>
<path d="M0,0 L2,0 L2,3 L0,3 L0,2 L-1,2 L-1,1 L0,1 Z M-2,2 L-1,2 L-1,3 L-2,3 Z " fill="#485B3F" transform="translate(931,925)"/>
<path d="M0,0 L2,0 L2,1 L3,1 L3,2 L4,2 L4,3 L3,3 L3,4 L2,4 L2,3 L1,3 L1,1 L0,1 Z " fill="#5D6C54" transform="translate(640,715)"/>
<path d="M0,0 L2,0 L2,2 L1,2 L1,3 L0,3 L0,4 L-1,4 L-1,1 L0,1 Z " fill="#EBEAE4" transform="translate(675,598)"/>
<path d="M0,0 L2,0 L2,2 L1,2 L1,3 L0,3 L0,4 L-1,4 L-1,1 L0,1 Z " fill="#E5E5DD" transform="translate(679,595)"/>
<path d="M0,0 L2,0 L2,2 L1,2 L1,3 L0,3 L0,4 L-1,4 L-1,1 L0,1 Z " fill="#5E6D54" transform="translate(571,595)"/>
<path d="M0,0 L1,0 L1,2 L2,2 L2,3 L1,3 L1,5 L0,5 L0,3 L-1,3 L-1,1 L0,1 Z " fill="#E5E4DC" transform="translate(615,340)"/>
<path d="M0,0 L4,0 L4,2 L3,2 L3,3 L2,3 L2,2 L1,2 L1,1 L0,1 Z " fill="#5C6A53" transform="translate(709,305)"/>
<path d="M0,0 L2,0 L2,2 L1,2 L1,3 L-1,3 L-1,2 L-2,2 L-2,1 L0,1 Z " fill="#E6E6DC" transform="translate(574,292)"/>
<path d="M0,0 L2,0 L2,2 L1,2 L1,3 L0,3 L0,2 L-2,2 L-2,1 L0,1 Z " fill="#707F66" transform="translate(1030,996)"/>
<path d="M0,0 L2,0 L2,1 L4,1 L4,2 L2,2 L2,3 L1,3 L1,2 L0,2 Z " fill="#627057" transform="translate(627,979)"/>
<path d="M0,0 L2,0 L2,1 L4,1 L4,2 L2,2 L2,3 L1,3 L1,2 L0,2 Z " fill="#617158" transform="translate(252,966)"/>
<path d="M0,0 L3,0 L3,2 L2,2 L2,3 L1,3 L1,2 L0,2 Z " fill="#E6E6E2" transform="translate(1044,901)"/>
<path d="M0,0 L2,0 L2,1 L3,1 L3,2 L2,2 L2,4 L1,4 L1,2 L0,2 Z " fill="#EDECE4" transform="translate(515,723)"/>
<path d="M0,0 L3,0 L3,1 L4,1 L4,2 L3,2 L3,3 L2,3 L2,2 L1,2 L1,1 L0,1 Z " fill="#66725D" transform="translate(625,694)"/>
<path d="M0,0 L1,0 L1,1 L2,1 L2,3 L-1,3 L-1,1 L0,1 Z " fill="#727E67" transform="translate(490,688)"/>
<path d="M0,0 L3,0 L3,1 L4,1 L4,2 L3,2 L3,3 L2,3 L2,2 L1,2 L1,1 L0,1 Z " fill="#6F7A66" transform="translate(618,686)"/>
<path d="M0,0 L2,0 L2,1 L4,1 L4,2 L2,2 L2,3 L1,3 L1,2 L0,2 Z " fill="#606F56" transform="translate(467,672)"/>
<path d="M0,0 L3,0 L3,1 L4,1 L4,2 L3,2 L3,3 L2,3 L2,2 L1,2 L1,1 L0,1 Z " fill="#5D6C54" transform="translate(724,324)"/>
<path d="M0,0 L3,0 L3,1 L4,1 L4,2 L3,2 L3,3 L2,3 L2,2 L1,2 L1,1 L0,1 Z " fill="#E3E3DA" transform="translate(588,306)"/>
<path d="M0,0 L2,0 L2,3 L0,3 L0,2 L-1,2 L-1,1 L0,1 Z " fill="#6C7A62" transform="translate(695,290)"/>
<path d="M0,0 L3,0 L3,1 L4,1 L4,2 L3,2 L3,3 L2,3 L2,2 L1,2 L1,1 L0,1 Z " fill="#E6E5DA" transform="translate(259,286)"/>
<path d="M0,0 L2,0 L2,1 L3,1 L3,2 L2,2 L2,4 L1,4 L1,2 L0,2 Z " fill="#5B6A50" transform="translate(246,278)"/>
<path d="M0,0 L2,0 L2,1 L3,1 L3,2 L2,2 L2,3 L1,3 L1,2 L0,2 Z " fill="#E5E4DA" transform="translate(596,668)"/>
<path d="M0,0 L2,0 L2,1 L3,1 L3,2 L2,2 L2,3 L1,3 L1,2 L0,2 Z " fill="#E4E3D9" transform="translate(577,656)"/>
<path d="M0,0 L2,0 L2,2 L1,2 L1,3 L0,3 L0,2 L-1,2 L-1,1 L0,1 Z " fill="#EFEDE5" transform="translate(686,589)"/>
<path d="M0,0 L2,0 L2,1 L3,1 L3,2 L2,2 L2,3 L1,3 L1,2 L0,2 Z " fill="#EBEAE3" transform="translate(713,312)"/>
<path d="M0,0 L2,0 L2,1 L3,1 L3,2 L2,2 L2,3 L1,3 L1,2 L0,2 Z " fill="#EFEFEA" transform="translate(682,283)"/>
</svg>
