<svg version="1.1" id="Layer_1" xmlns="http://www.w3.org/2000/svg" xmlns:xlink="http://www.w3.org/1999/xlink" x="0px" y="0px"
	 width="100%" viewBox="0 0 1254 1254" enable-background="new 0 0 1254 1254" xml:space="preserve">
<path fill="#FDFDFD" opacity="1.000000" stroke="none" 
	d="
M701.000000,1255.000000 
	C467.333344,1255.000000 234.166672,1255.000000 1.000000,1255.000000 
	C1.000000,837.000000 1.000000,419.000000 1.000000,1.000000 
	C419.000000,1.000000 837.000000,1.000000 1255.000000,1.000000 
	C1255.000000,419.000000 1255.000000,837.000000 1255.000000,1255.000000 
	C1070.500000,1255.000000 886.000000,1255.000000 701.000000,1255.000000 
M1240.518799,505.887085 
	C1240.509399,485.222992 1240.494263,464.558929 1240.491699,443.894836 
	C1240.480347,352.900391 1240.510986,261.905914 1240.431274,170.911514 
	C1240.414917,152.259674 1236.937622,134.225861 1230.309082,116.726158 
	C1207.579468,56.719673 1146.955078,11.963430 1078.832764,13.088395 
	C1037.012695,13.779007 995.172180,13.253776 953.340820,13.252243 
	C693.853027,13.242740 434.365204,13.188143 174.877533,13.354491 
	C164.458939,13.361171 153.824997,14.461679 143.658401,16.711201 
	C68.566818,33.326431 17.094488,97.693993 17.082651,174.752502 
	C17.035978,478.572021 17.067179,782.391541 17.065237,1086.211060 
	C17.065138,1101.655029 19.549881,1116.680176 24.187012,1131.411255 
	C45.091335,1197.819580 107.137787,1243.789917 175.243622,1243.692505 
	C299.236206,1243.515259 423.229095,1243.535645 547.221863,1243.528931 
	C725.045715,1243.519165 902.869629,1243.567993 1080.693481,1243.542847 
	C1087.184937,1243.541992 1093.718872,1243.408936 1100.161255,1242.691528 
	C1178.253174,1233.994995 1240.331421,1164.725952 1240.525879,1085.796143 
	C1240.716431,1008.467773 1240.572388,931.138611 1240.564331,853.809753 
	C1240.552246,738.149780 1240.530640,622.489807 1240.518799,505.887085 
z"/>
<path fill="#2E3B23" opacity="1.000000" stroke="none" 
	d="
M1240.515869,506.358459 
	C1240.530640,622.489807 1240.552246,738.149780 1240.564331,853.809753 
	C1240.572388,931.138611 1240.716431,1008.467773 1240.525879,1085.796143 
	C1240.331421,1164.725952 1178.253174,1233.994995 1100.161255,1242.691528 
	C1093.718872,1243.408936 1087.184937,1243.541992 1080.693481,1243.542847 
	C902.869629,1243.567993 725.045715,1243.519165 547.221863,1243.528931 
	C423.229095,1243.535645 299.236206,1243.515259 175.243622,1243.692505 
	C107.137787,1243.789917 45.091335,1197.819580 24.187012,1131.411255 
	C19.549881,1116.680176 17.065138,1101.655029 17.065237,1086.211060 
	C17.067179,782.391541 17.035978,478.572021 17.082651,174.752502 
	C17.094488,97.693993 68.566818,33.326431 143.658401,16.711201 
	C153.824997,14.461679 164.458939,13.361171 174.877533,13.354491 
	C434.365204,13.188143 693.853027,13.242740 953.340820,13.252243 
	C995.172180,13.253776 1037.012695,13.779007 1078.832764,13.088395 
	C1146.955078,11.963430 1207.579468,56.719673 1230.309082,116.726158 
	C1236.937622,134.225861 1240.414917,152.259674 1240.431274,170.911514 
	C1240.510986,261.905914 1240.480347,352.900391 1240.491699,443.894836 
	C1240.494263,464.558929 1240.509399,485.222992 1240.515869,506.358459 
M317.428497,312.362122 
	C316.446930,315.349762 314.735840,318.308075 314.614258,321.330322 
	C314.166107,332.470947 314.867462,332.812561 325.600555,335.046143 
	C336.840057,337.385162 348.134613,339.689056 359.119781,342.965057 
	C374.111511,347.435883 384.105621,357.528412 385.809998,373.366791 
	C387.854675,392.368011 389.553528,411.516602 389.596344,430.605408 
	C389.899811,565.925171 389.809448,701.246094 389.619415,836.566223 
	C389.600983,849.688171 388.584503,862.869019 387.083038,875.913391 
	C385.158203,892.636047 375.083466,902.628784 358.740936,905.898010 
	C348.141663,908.018372 337.414948,909.596924 326.686249,910.949524 
	C315.020630,912.420227 314.255341,913.017883 314.523224,924.825439 
	C314.534546,925.325195 314.536774,925.825500 314.560547,926.324707 
	C314.922760,933.921753 315.516907,934.541077 323.065399,934.544556 
	C393.892059,934.577148 464.718903,934.685425 535.545166,934.531006 
	C548.684570,934.502258 549.747620,938.184021 549.575012,919.807068 
	C549.519714,913.916504 548.209106,912.604736 542.477783,911.684509 
	C529.004089,909.521240 515.432373,907.799561 502.104523,904.945801 
	C490.105011,902.376526 481.671112,894.745850 479.164581,882.482971 
	C477.074982,872.259644 475.341980,861.753906 475.273956,851.361267 
	C474.863739,788.703674 474.976074,726.042603 474.937622,663.382690 
	C474.936951,662.276733 475.234894,661.170715 475.414246,659.920105 
	C496.318268,659.920105 516.951721,659.808655 537.579468,660.097656 
	C539.577332,660.125610 542.180359,662.202637 543.423157,664.053284 
	C560.322815,689.218201 576.771973,714.688110 593.843262,739.734558 
	C626.668274,787.894287 659.442383,836.098267 693.080811,883.687866 
	C702.320007,896.758911 714.018372,908.262024 725.559021,919.486572 
	C736.452332,930.081604 750.232056,934.966309 765.663818,934.666992 
	C774.326599,934.498901 782.994873,934.613159 791.660706,934.606689 
	C815.491577,934.588989 839.322876,934.498901 863.153076,934.623230 
	C867.885498,934.647949 869.905640,932.636841 869.934326,928.141174 
	C869.954590,924.975342 869.962891,921.809509 869.990601,918.643738 
	C870.034119,913.664978 868.161255,910.799072 862.735901,909.740662 
	C843.065979,905.903442 824.748535,898.785217 808.510315,886.649414 
	C786.331116,870.073486 768.768250,849.081116 752.732788,826.967407 
	C710.883240,769.254883 669.740356,711.029724 628.343689,652.989014 
	C627.047119,651.171143 626.058411,649.133545 624.527344,646.516724 
	C627.911377,645.522888 630.539978,644.645081 633.221375,643.980042 
	C655.153076,638.540955 676.397278,631.194153 695.486877,618.922546 
	C749.739746,584.046265 775.829590,534.161499 772.998169,469.721680 
	C771.267029,430.323242 758.341553,395.035828 730.781494,366.034332 
	C706.481873,340.463867 675.903198,326.089355 641.866638,319.500092 
	C621.510254,315.559174 600.630920,314.319519 579.770020,311.100250 
	C577.914734,310.736664 576.059814,310.057983 574.204041,310.055542 
	C528.747559,309.996338 483.291077,310.010529 437.834564,310.008118 
	C399.704407,310.006104 361.574158,309.973450 323.444275,310.076691 
	C321.630951,310.081604 319.820862,311.274170 317.428497,312.362122 
M970.676636,936.129028 
	C972.174927,936.153076 973.676575,936.253845 975.171082,936.189636 
	C995.471558,935.316956 1010.640381,925.788025 1019.296692,907.632690 
	C1028.062988,889.247009 1025.927368,871.129944 1013.116028,855.122192 
	C1000.561401,839.435181 983.654541,833.633789 964.113892,837.443298 
	C940.001404,842.144043 922.901794,864.783447 924.175293,889.008545 
	C925.482239,913.867859 944.436340,933.427307 970.676636,936.129028 
z"/>
<path fill="#FBF6EB" opacity="1.000000" stroke="none" 
	d="
M579.986633,311.865692 
	C600.630920,314.319519 621.510254,315.559174 641.866638,319.500092 
	C675.903198,326.089355 706.481873,340.463867 730.781494,366.034332 
	C758.341553,395.035828 771.267029,430.323242 772.998169,469.721680 
	C775.829590,534.161499 749.739746,584.046265 695.486877,618.922546 
	C676.397278,631.194153 655.153076,638.540955 633.221375,643.980042 
	C630.539978,644.645081 627.911377,645.522888 624.527344,646.516724 
	C626.058411,649.133545 627.047119,651.171143 628.343689,652.989014 
	C669.740356,711.029724 710.883240,769.254883 752.732788,826.967407 
	C768.768250,849.081116 786.331116,870.073486 808.510315,886.649414 
	C824.748535,898.785217 843.065979,905.903442 862.735901,909.740662 
	C868.161255,910.799072 870.034119,913.664978 869.990601,918.643738 
	C869.962891,921.809509 869.954590,924.975342 869.934326,928.141174 
	C869.905640,932.636841 867.885498,934.647949 863.153076,934.623230 
	C839.322876,934.498901 815.491577,934.588989 791.660706,934.606689 
	C782.994873,934.613159 774.326599,934.498901 765.663818,934.666992 
	C750.232056,934.966309 736.452332,930.081604 725.559021,919.486572 
	C714.018372,908.262024 702.320007,896.758911 693.080811,883.687866 
	C659.442383,836.098267 626.668274,787.894287 593.843262,739.734558 
	C576.771973,714.688110 560.322815,689.218201 543.423157,664.053284 
	C542.180359,662.202637 539.577332,660.125610 537.579468,660.097656 
	C516.951721,659.808655 496.318268,659.920105 475.414246,659.920105 
	C475.234894,661.170715 474.936951,662.276733 474.937622,663.382690 
	C474.976074,726.042603 474.863739,788.703674 475.273956,851.361267 
	C475.341980,861.753906 477.074982,872.259644 479.164581,882.482971 
	C481.671112,894.745850 490.105011,902.376526 502.104523,904.945801 
	C515.432373,907.799561 529.004089,909.521240 542.477783,911.684509 
	C548.209106,912.604736 549.519714,913.916504 549.575012,919.807068 
	C549.747620,938.184021 548.684570,934.502258 535.545166,934.531006 
	C464.718903,934.685425 393.892059,934.577148 323.065399,934.544556 
	C315.516907,934.541077 314.922760,933.921753 314.560547,926.324707 
	C314.536774,925.825500 314.534546,925.325195 314.523224,924.825439 
	C314.255341,913.017883 315.020630,912.420227 326.686249,910.949524 
	C337.414948,909.596924 348.141663,908.018372 358.740936,905.898010 
	C375.083466,902.628784 385.158203,892.636047 387.083038,875.913391 
	C388.584503,862.869019 389.600983,849.688171 389.619415,836.566223 
	C389.809448,701.246094 389.899811,565.925171 389.596344,430.605408 
	C389.553528,411.516602 387.854675,392.368011 385.809998,373.366791 
	C384.105621,357.528412 374.111511,347.435883 359.119781,342.965057 
	C348.134613,339.689056 336.840057,337.385162 325.600555,335.046143 
	C314.867462,332.812561 314.166107,332.470947 314.614258,321.330322 
	C314.735840,318.308075 316.446930,315.349762 318.184570,312.188141 
	C361.867462,311.994934 404.794220,311.979767 447.721008,311.955292 
	C491.809540,311.930176 535.898071,311.895966 579.986633,311.865692 
M474.910309,454.500000 
	C474.911530,511.478851 474.913818,568.457703 474.912384,625.436523 
	C474.912231,631.737000 475.277985,632.140686 481.813934,632.155579 
	C497.141479,632.190491 512.476135,632.480103 527.794800,632.115356 
	C543.422729,631.743469 559.235962,632.042969 574.616211,629.719299 
	C619.305969,622.967468 651.966858,599.249084 669.158081,556.866150 
	C686.226685,514.785645 686.799805,471.418518 674.892334,428.003326 
	C663.077148,384.924713 635.646606,356.373230 592.142517,344.697510 
	C557.868286,335.498993 523.188965,337.004211 488.593079,343.259308 
	C482.409485,344.377350 478.506378,348.698944 477.435028,354.735443 
	C476.218658,361.589172 475.295990,368.586609 475.211914,375.533295 
	C474.897339,401.519592 474.977875,427.510712 474.910309,454.500000 
z"/>
<path fill="#FBF6EB" opacity="1.000000" stroke="none" 
	d="
M970.209717,936.080200 
	C944.436340,933.427307 925.482239,913.867859 924.175293,889.008545 
	C922.901794,864.783447 940.001404,842.144043 964.113892,837.443298 
	C983.654541,833.633789 1000.561401,839.435181 1013.116028,855.122192 
	C1025.927368,871.129944 1028.062988,889.247009 1019.296692,907.632690 
	C1010.640381,925.788025 995.471558,935.316956 975.171082,936.189636 
	C973.676575,936.253845 972.174927,936.153076 970.209717,936.080200 
z"/>
<path fill="#1F2C14" opacity="1.000000" stroke="none" 
	d="
M579.878296,311.482971 
	C535.898071,311.895966 491.809540,311.930176 447.721008,311.955292 
	C404.794220,311.979767 361.867462,311.994934 318.474976,311.963898 
	C319.820862,311.274170 321.630951,310.081604 323.444275,310.076691 
	C361.574158,309.973450 399.704407,310.006104 437.834564,310.008118 
	C483.291077,310.010529 528.747559,309.996338 574.204041,310.055542 
	C576.059814,310.057983 577.914734,310.736664 579.878296,311.482971 
z"/>
<path fill="#2E3B23" opacity="1.000000" stroke="none" 
	d="
M474.910278,454.000000 
	C474.977875,427.510712 474.897339,401.519592 475.211914,375.533295 
	C475.295990,368.586609 476.218658,361.589172 477.435028,354.735443 
	C478.506378,348.698944 482.409485,344.377350 488.593079,343.259308 
	C523.188965,337.004211 557.868286,335.498993 592.142517,344.697510 
	C635.646606,356.373230 663.077148,384.924713 674.892334,428.003326 
	C686.799805,471.418518 686.226685,514.785645 669.158081,556.866150 
	C651.966858,599.249084 619.305969,622.967468 574.616211,629.719299 
	C559.235962,632.042969 543.422729,631.743469 527.794800,632.115356 
	C512.476135,632.480103 497.141479,632.190491 481.813934,632.155579 
	C475.277985,632.140686 474.912231,631.737000 474.912384,625.436523 
	C474.913818,568.457703 474.911530,511.478851 474.910278,454.000000 
z"/>
</svg>