<svg version="1.1" id="Layer_1" xmlns="http://www.w3.org/2000/svg" xmlns:xlink="http://www.w3.org/1999/xlink" x="0px" y="0px"
	 width="100%" viewBox="0 0 1254 1254" enable-background="new 0 0 1254 1254" xml:space="preserve">
<path fill="#506245" opacity="1.000000" stroke="none" 
	d="
M0.999994,1098.000000 
	C1.000000,785.635742 1.000000,473.271515 1.377460,160.419479 
	C2.317657,157.542740 2.950818,155.167908 3.432659,152.762726 
	C11.853271,110.730301 31.839380,75.274818 63.942463,46.802750 
	C90.120224,23.585817 120.581406,9.144959 154.997742,2.943248 
	C156.402924,2.690037 157.669067,1.665288 159.000000,1.000000 
	C471.697601,1.000000 784.395203,1.000000 1097.551758,1.388805 
	C1103.753174,3.199239 1109.510864,4.561844 1115.235352,6.052098 
	C1152.186523,15.671686 1183.406860,34.769196 1208.657104,63.352741 
	C1231.748779,89.492882 1246.661743,119.741364 1252.863037,154.182877 
	C1253.107300,155.539520 1254.266968,156.731339 1255.000000,157.999985 
	C1255.000000,471.030914 1255.000000,784.061829 1254.615479,1097.554565 
	C1253.713379,1099.531860 1253.004272,1101.010742 1252.706421,1102.568237 
	C1244.606812,1144.909668 1224.564209,1180.502808 1192.274780,1209.071533 
	C1166.231323,1232.114136 1136.075684,1246.818726 1101.782227,1252.952515 
	C1100.442383,1253.192139 1099.257202,1254.297852 1098.000000,1255.000000 
	C785.302429,1255.000000 472.604828,1255.000000 159.401184,1254.619873 
	C157.848343,1253.846191 156.832764,1253.269409 155.750351,1253.085083 
	C110.438980,1245.369019 72.966309,1223.743408 43.670597,1188.541504 
	C22.441837,1163.033081 8.643273,1133.732910 2.892745,1100.844849 
	C2.713134,1099.817749 1.650797,1098.944824 0.999994,1098.000000 
M288.610992,289.107086 
	C283.176941,292.363434 284.570984,297.799957 284.501831,302.621338 
	C284.413177,308.803375 286.389832,310.759186 292.486023,312.006775 
	C305.377960,314.645111 318.340820,317.019104 331.101013,320.198334 
	C347.357117,324.248596 357.719482,334.519318 359.968445,351.471588 
	C361.300476,361.512390 362.060486,371.707397 362.067993,381.833801 
	C362.190552,546.992004 362.179169,712.150330 362.068146,877.308533 
	C362.062592,885.606506 361.260834,893.954346 360.164276,902.190369 
	C358.015686,918.328552 348.530426,928.119385 332.636902,931.023499 
	C319.543610,933.415955 306.304047,935.039612 293.100128,936.782837 
	C286.251984,937.686829 284.233917,939.898193 284.474762,947.362793 
	C284.688873,953.998779 286.705475,955.895020 293.867279,955.891113 
	C320.532410,955.876587 347.197601,955.773193 373.862701,955.783813 
	C429.026367,955.805725 484.190033,955.895081 539.353699,955.911865 
	C546.409607,955.914001 548.544861,953.829956 548.778809,947.278870 
	C549.044800,939.825378 546.967407,937.642334 540.165405,936.664978 
	C525.671997,934.582520 511.120026,932.673035 496.800232,929.692505 
	C485.794983,927.401794 477.753174,920.515930 475.333069,909.070740 
	C473.584503,900.801453 472.124054,892.282288 472.091583,883.868530 
	C471.806610,810.040466 471.869507,736.211060 471.851807,662.382019 
	C471.851532,661.278137 472.137604,660.174133 472.194458,659.762573 
	C485.214722,659.762573 497.864532,659.261719 510.444611,659.980957 
	C516.436523,660.323547 522.530884,662.409485 528.172852,664.704102 
	C548.423096,672.939697 561.070801,689.070435 571.132629,707.588013 
	C581.394531,726.473877 587.191284,747.032349 592.854431,767.587463 
	C601.389465,798.566589 608.995056,829.817261 618.196960,860.593262 
	C628.726624,895.810364 650.317505,922.707397 682.963196,940.239319 
	C708.763977,954.095154 736.559326,960.098694 765.638672,960.671997 
	C784.873535,961.051208 803.969238,959.924500 822.427734,953.789856 
	C844.170532,946.563782 856.632751,930.941406 857.390198,910.046143 
	C858.174133,888.418030 844.515686,875.528015 824.187256,878.711304 
	C813.615051,880.366760 806.480530,886.166992 804.440369,895.244324 
	C802.132996,905.510559 805.125916,913.987183 813.722229,920.300110 
	C815.735046,921.778259 817.927185,923.064331 819.732605,924.762329 
	C823.660217,928.456055 822.921875,933.070312 817.750000,934.133362 
	C811.983215,935.318542 805.792542,936.123535 800.029114,935.330139 
	C781.882202,932.831787 767.218994,923.729309 757.800842,908.043762 
	C751.244751,897.125061 745.535278,885.446838 741.270996,873.459351 
	C734.074219,853.228027 728.538391,832.412720 721.912048,811.970032 
	C712.569092,783.146301 704.023560,753.987793 693.023926,725.796936 
	C679.793823,691.889771 656.797485,665.866516 623.182312,650.229187 
	C620.809814,649.125610 618.460754,647.971741 615.245117,646.431274 
	C617.711365,645.798401 619.243652,645.448914 620.750488,645.011658 
	C635.603027,640.701599 650.801941,637.312500 665.241943,631.899658 
	C740.444458,603.709961 785.914307,537.439270 784.911255,457.633514 
	C784.365906,414.248138 770.242249,375.946960 739.633850,344.513611 
	C716.877258,321.143677 688.483765,307.690369 657.521362,299.044037 
	C636.409668,293.148590 614.786804,290.359894 592.590637,288.149323 
	C590.872437,287.771698 589.154358,287.064636 587.435974,287.063599 
	C489.791687,287.003784 392.147400,286.993561 294.503174,287.066254 
	C292.696503,287.067627 290.890625,288.122681 288.610992,289.107086 
M1003.861633,846.491211 
	C973.259949,841.021179 943.924622,861.070740 938.045471,891.474121 
	C932.138428,922.022278 951.585083,951.147339 982.009766,957.318665 
	C1011.671448,963.335144 1040.769775,943.955139 1047.267334,913.855896 
	C1053.892456,883.165527 1035.213501,853.714844 1003.861633,846.491211 
z"/>
<path fill="#010100" opacity="1.000000" stroke="none" 
	d="
M158.531342,1.000000 
	C157.669067,1.665288 156.402924,2.690037 154.997742,2.943248 
	C120.581406,9.144959 90.120224,23.585817 63.942463,46.802750 
	C31.839380,75.274818 11.853271,110.730301 3.432659,152.762726 
	C2.950818,155.167908 2.317657,157.542740 1.377460,159.965851 
	C1.000000,107.073219 1.000000,54.146442 1.000000,1.000000 
	C53.354023,1.000000 105.708351,1.000000 158.531342,1.000000 
z"/>
<path fill="#010100" opacity="1.000000" stroke="none" 
	d="
M1255.000000,157.531326 
	C1254.266968,156.731339 1253.107300,155.539520 1252.863037,154.182877 
	C1246.661743,119.741364 1231.748779,89.492882 1208.657104,63.352741 
	C1183.406860,34.769196 1152.186523,15.671686 1115.235352,6.052098 
	C1109.510864,4.561844 1103.753174,3.199239 1098.005371,1.388805 
	C1150.260376,1.000000 1202.520630,1.000000 1255.000000,1.000000 
	C1255.000000,53.020691 1255.000000,105.041687 1255.000000,157.531326 
z"/>
<path fill="#010100" opacity="1.000000" stroke="none" 
	d="
M1098.468628,1255.000000 
	C1099.257202,1254.297852 1100.442383,1253.192139 1101.782227,1252.952515 
	C1136.075684,1246.818726 1166.231323,1232.114136 1192.274780,1209.071533 
	C1224.564209,1180.502808 1244.606812,1144.909668 1252.706421,1102.568237 
	C1253.004272,1101.010742 1253.713379,1099.531860 1254.615479,1098.008179 
	C1255.000000,1150.260376 1255.000000,1202.520630 1255.000000,1255.000000 
	C1202.979248,1255.000000 1150.958252,1255.000000 1098.468628,1255.000000 
z"/>
<path fill="#010100" opacity="1.000000" stroke="none" 
	d="
M0.999994,1098.468628 
	C1.650797,1098.944824 2.713134,1099.817749 2.892745,1100.844849 
	C8.643273,1133.732910 22.441837,1163.033081 43.670597,1188.541504 
	C72.966309,1223.743408 110.438980,1245.369019 155.750351,1253.085083 
	C156.832764,1253.269409 157.848343,1253.846191 158.947556,1254.619873 
	C106.406555,1255.000000 53.813114,1255.000000 1.000000,1255.000000 
	C1.000000,1202.979248 1.000000,1150.958252 0.999994,1098.468628 
z"/>
<path fill="#F8F4EE" opacity="1.000000" stroke="none" 
	d="
M592.977905,288.798584 
	C614.786804,290.359894 636.409668,293.148590 657.521362,299.044037 
	C688.483765,307.690369 716.877258,321.143677 739.633850,344.513611 
	C770.242249,375.946960 784.365906,414.248138 784.911255,457.633514 
	C785.914307,537.439270 740.444458,603.709961 665.241943,631.899658 
	C650.801941,637.312500 635.603027,640.701599 620.750488,645.011658 
	C619.243652,645.448914 617.711365,645.798401 615.245117,646.431274 
	C618.460754,647.971741 620.809814,649.125610 623.182312,650.229187 
	C656.797485,665.866516 679.793823,691.889771 693.023926,725.796936 
	C704.023560,753.987793 712.569092,783.146301 721.912048,811.970032 
	C728.538391,832.412720 734.074219,853.228027 741.270996,873.459351 
	C745.535278,885.446838 751.244751,897.125061 757.800842,908.043762 
	C767.218994,923.729309 781.882202,932.831787 800.029114,935.330139 
	C805.792542,936.123535 811.983215,935.318542 817.750000,934.133362 
	C822.921875,933.070312 823.660217,928.456055 819.732605,924.762329 
	C817.927185,923.064331 815.735046,921.778259 813.722229,920.300110 
	C805.125916,913.987183 802.132996,905.510559 804.440369,895.244324 
	C806.480530,886.166992 813.615051,880.366760 824.187256,878.711304 
	C844.515686,875.528015 858.174133,888.418030 857.390198,910.046143 
	C856.632751,930.941406 844.170532,946.563782 822.427734,953.789856 
	C803.969238,959.924500 784.873535,961.051208 765.638672,960.671997 
	C736.559326,960.098694 708.763977,954.095154 682.963196,940.239319 
	C650.317505,922.707397 628.726624,895.810364 618.196960,860.593262 
	C608.995056,829.817261 601.389465,798.566589 592.854431,767.587463 
	C587.191284,747.032349 581.394531,726.473877 571.132629,707.588013 
	C561.070801,689.070435 548.423096,672.939697 528.172852,664.704102 
	C522.530884,662.409485 516.436523,660.323547 510.444611,659.980957 
	C497.864532,659.261719 485.214722,659.762573 472.194458,659.762573 
	C472.137604,660.174133 471.851532,661.278137 471.851807,662.382019 
	C471.869507,736.211060 471.806610,810.040466 472.091583,883.868530 
	C472.124054,892.282288 473.584503,900.801453 475.333069,909.070740 
	C477.753174,920.515930 485.794983,927.401794 496.800232,929.692505 
	C511.120026,932.673035 525.671997,934.582520 540.165405,936.664978 
	C546.967407,937.642334 549.044800,939.825378 548.778809,947.278870 
	C548.544861,953.829956 546.409607,955.914001 539.353699,955.911865 
	C484.190033,955.895081 429.026367,955.805725 373.862701,955.783813 
	C347.197601,955.773193 320.532410,955.876587 293.867279,955.891113 
	C286.705475,955.895020 284.688873,953.998779 284.474762,947.362793 
	C284.233917,939.898193 286.251984,937.686829 293.100128,936.782837 
	C306.304047,935.039612 319.543610,933.415955 332.636902,931.023499 
	C348.530426,928.119385 358.015686,918.328552 360.164276,902.190369 
	C361.260834,893.954346 362.062592,885.606506 362.068146,877.308533 
	C362.179169,712.150330 362.190552,546.992004 362.067993,381.833801 
	C362.060486,371.707397 361.300476,361.512390 359.968445,351.471588 
	C357.719482,334.519318 347.357117,324.248596 331.101013,320.198334 
	C318.340820,317.019104 305.377960,314.645111 292.486023,312.006775 
	C286.389832,310.759186 284.413177,308.803375 284.501831,302.621338 
	C284.570984,297.799957 283.176941,292.363434 289.312561,288.871216 
	C333.176910,288.576263 376.339813,288.444794 419.502563,288.475891 
	C477.327698,288.517548 535.152771,288.685089 592.977905,288.798584 
M660.922729,555.346313 
	C682.340149,503.973328 685.107239,451.632477 668.073547,398.622986 
	C658.885742,370.030060 641.900085,347.193573 615.089233,332.361359 
	C595.480225,321.513245 574.225098,317.516632 552.189819,316.514404 
	C532.158081,315.603271 512.200806,316.328796 492.447968,320.023712 
	C480.077454,322.337677 475.871948,326.535889 473.820709,338.844421 
	C472.811157,344.902313 472.097168,351.090820 472.086395,357.221649 
	C471.927612,447.701477 471.908600,538.181580 471.875458,628.661560 
	C471.875153,629.444153 472.133759,630.226868 472.375366,631.599609 
	C481.641602,631.599609 490.770905,631.540894 499.899231,631.611206 
	C521.918274,631.780823 543.899841,631.353638 565.587219,626.983582 
	C608.450745,618.346436 641.456909,596.450562 660.922729,555.346313 
z"/>
<path fill="#F8F4ED" opacity="1.000000" stroke="none" 
	d="
M1004.268311,846.596436 
	C1035.213501,853.714844 1053.892456,883.165527 1047.267334,913.855896 
	C1040.769775,943.955139 1011.671448,963.335144 982.009766,957.318665 
	C951.585083,951.147339 932.138428,922.022278 938.045471,891.474121 
	C943.924622,861.070740 973.259949,841.021179 1004.268311,846.596436 
z"/>
<path fill="#405137" opacity="1.000000" stroke="none" 
	d="
M592.784302,288.473938 
	C535.152771,288.685089 477.327698,288.517548 419.502563,288.475891 
	C376.339813,288.444794 333.176910,288.576263 289.549255,288.660706 
	C290.890625,288.122681 292.696503,287.067627 294.503174,287.066254 
	C392.147400,286.993561 489.791687,287.003784 587.435974,287.063599 
	C589.154358,287.064636 590.872437,287.771698 592.784302,288.473938 
z"/>
<path fill="#506245" opacity="1.000000" stroke="none" 
	d="
M660.764893,555.687622 
	C641.456909,596.450562 608.450745,618.346436 565.587219,626.983582 
	C543.899841,631.353638 521.918274,631.780823 499.899231,631.611206 
	C490.770905,631.540894 481.641602,631.599609 472.375366,631.599609 
	C472.133759,630.226868 471.875153,629.444153 471.875458,628.661560 
	C471.908600,538.181580 471.927612,447.701477 472.086395,357.221649 
	C472.097168,351.090820 472.811157,344.902313 473.820709,338.844421 
	C475.871948,326.535889 480.077454,322.337677 492.447968,320.023712 
	C512.200806,316.328796 532.158081,315.603271 552.189819,316.514404 
	C574.225098,317.516632 595.480225,321.513245 615.089233,332.361359 
	C641.900085,347.193573 658.885742,370.030060 668.073547,398.622986 
	C685.107239,451.632477 682.340149,503.973328 660.764893,555.687622 
z"/>
</svg>